M48
; DRILL file {KiCad (6.0.11)} date Mon Feb  6 20:59:51 2023
; FORMAT={-:-/ absolute / metric / decimal}
; #@! TF.CreationDate,2023-02-06T20:59:51+10:00
; #@! TF.GenerationSoftware,Kicad,Pcbnew,(6.0.11)
; #@! TF.FileFunction,Plated,1,2,PTH
FMAT,2
METRIC
; #@! TA.AperFunction,Plated,PTH,ComponentDrill
T1C1.000
; #@! TA.AperFunction,Plated,PTH,ComponentDrill
T2C1.100
%
G90
G05
T1
X134.62Y-72.39
X134.62Y-74.93
X134.62Y-77.47
X134.62Y-80.01
X134.62Y-82.55
X134.62Y-85.09
X134.62Y-87.63
X134.62Y-90.17
X160.02Y-72.39
X160.02Y-74.93
X160.02Y-77.47
X160.02Y-80.01
X160.02Y-82.55
X160.02Y-85.09
X160.02Y-87.63
X160.02Y-90.17
T2
X143.02Y-66.78G85X143.02Y-67.78
G05
X143.02Y-70.78G85X143.02Y-71.78
G05
X143.02Y-74.78G85X143.02Y-75.78
G05
X143.02Y-78.78G85X143.02Y-79.78
G05
X143.02Y-82.78G85X143.02Y-83.78
G05
X143.02Y-86.78G85X143.02Y-87.78
G05
X143.02Y-90.78G85X143.02Y-91.78
G05
X143.02Y-94.78G85X143.02Y-95.78
G05
X151.62Y-66.78G85X151.62Y-67.78
G05
X151.62Y-70.78G85X151.62Y-71.78
G05
X151.62Y-74.78G85X151.62Y-75.78
G05
X151.62Y-78.78G85X151.62Y-79.78
G05
X151.62Y-82.78G85X151.62Y-83.78
G05
X151.62Y-86.78G85X151.62Y-87.78
G05
X151.62Y-90.78G85X151.62Y-91.78
G05
X151.62Y-94.78G85X151.62Y-95.78
G05
T0
M30
