%TF.GenerationSoftware,KiCad,Pcbnew,(6.0.11)*%
%TF.CreationDate,2023-02-06T21:00:16+10:00*%
%TF.ProjectId,can_explorer,63616e5f-6578-4706-9c6f-7265722e6b69,rev?*%
%TF.SameCoordinates,Original*%
%TF.FileFunction,Drillmap*%
%TF.FilePolarity,Positive*%
%FSLAX45Y45*%
G04 Gerber Fmt 4.5, Leading zero omitted, Abs format (unit mm)*
G04 Created by KiCad (PCBNEW (6.0.11)) date 2023-02-06 21:00:16*
%MOMM*%
%LPD*%
G01*
G04 APERTURE LIST*
%ADD10C,0.100000*%
%ADD11C,0.200000*%
%ADD12C,0.110000*%
G04 APERTURE END LIST*
D10*
X16129000Y-5842000D02*
X13335000Y-5842000D01*
X13335000Y-10414000D02*
X16129000Y-10414000D01*
X13208000Y-5969000D02*
X13208000Y-10287000D01*
X13335000Y-5842000D02*
G75*
G03*
X13208000Y-5969000I0J-127000D01*
G01*
X13208000Y-10287000D02*
G75*
G03*
X13335000Y-10414000I127000J0D01*
G01*
X16129000Y-10414000D02*
G75*
G03*
X16256000Y-10287000I0J127000D01*
G01*
X16256000Y-10287000D02*
X16256000Y-5969000D01*
X16256000Y-5969000D02*
G75*
G03*
X16129000Y-5842000I-127000J0D01*
G01*
D11*
D10*
X13412000Y-7189000D02*
X13512000Y-7289000D01*
X13512000Y-7189000D02*
X13412000Y-7289000D01*
X13412000Y-7443000D02*
X13512000Y-7543000D01*
X13512000Y-7443000D02*
X13412000Y-7543000D01*
X13412000Y-7697000D02*
X13512000Y-7797000D01*
X13512000Y-7697000D02*
X13412000Y-7797000D01*
X13412000Y-7951000D02*
X13512000Y-8051000D01*
X13512000Y-7951000D02*
X13412000Y-8051000D01*
X13412000Y-8205000D02*
X13512000Y-8305000D01*
X13512000Y-8205000D02*
X13412000Y-8305000D01*
X13412000Y-8459000D02*
X13512000Y-8559000D01*
X13512000Y-8459000D02*
X13412000Y-8559000D01*
X13412000Y-8713000D02*
X13512000Y-8813000D01*
X13512000Y-8713000D02*
X13412000Y-8813000D01*
X13412000Y-8967000D02*
X13512000Y-9067000D01*
X13512000Y-8967000D02*
X13412000Y-9067000D01*
X15952000Y-7189000D02*
X16052000Y-7289000D01*
X16052000Y-7189000D02*
X15952000Y-7289000D01*
X15952000Y-7443000D02*
X16052000Y-7543000D01*
X16052000Y-7443000D02*
X15952000Y-7543000D01*
X15952000Y-7697000D02*
X16052000Y-7797000D01*
X16052000Y-7697000D02*
X15952000Y-7797000D01*
X15952000Y-7951000D02*
X16052000Y-8051000D01*
X16052000Y-7951000D02*
X15952000Y-8051000D01*
X15952000Y-8205000D02*
X16052000Y-8305000D01*
X16052000Y-8205000D02*
X15952000Y-8305000D01*
X15952000Y-8459000D02*
X16052000Y-8559000D01*
X16052000Y-8459000D02*
X15952000Y-8559000D01*
X15952000Y-8713000D02*
X16052000Y-8813000D01*
X16052000Y-8713000D02*
X15952000Y-8813000D01*
X15952000Y-8967000D02*
X16052000Y-9067000D01*
X16052000Y-8967000D02*
X15952000Y-9067000D01*
D12*
X14357000Y-6728000D02*
G75*
G03*
X14357000Y-6728000I-55000J0D01*
G01*
D11*
X14247000Y-6678000D02*
X14247000Y-6778000D01*
X14357000Y-6678000D02*
X14357000Y-6778000D01*
X14247000Y-6778000D02*
G75*
G03*
X14357000Y-6778000I55000J0D01*
G01*
X14357000Y-6678000D02*
G75*
G03*
X14247000Y-6678000I-55000J0D01*
G01*
D12*
X14357000Y-7128000D02*
G75*
G03*
X14357000Y-7128000I-55000J0D01*
G01*
D11*
X14247000Y-7078000D02*
X14247000Y-7178000D01*
X14357000Y-7078000D02*
X14357000Y-7178000D01*
X14247000Y-7178000D02*
G75*
G03*
X14357000Y-7178000I55000J0D01*
G01*
X14357000Y-7078000D02*
G75*
G03*
X14247000Y-7078000I-55000J0D01*
G01*
D12*
X14357000Y-7528000D02*
G75*
G03*
X14357000Y-7528000I-55000J0D01*
G01*
D11*
X14247000Y-7478000D02*
X14247000Y-7578000D01*
X14357000Y-7478000D02*
X14357000Y-7578000D01*
X14247000Y-7578000D02*
G75*
G03*
X14357000Y-7578000I55000J0D01*
G01*
X14357000Y-7478000D02*
G75*
G03*
X14247000Y-7478000I-55000J0D01*
G01*
D12*
X14357000Y-7928000D02*
G75*
G03*
X14357000Y-7928000I-55000J0D01*
G01*
D11*
X14247000Y-7878000D02*
X14247000Y-7978000D01*
X14357000Y-7878000D02*
X14357000Y-7978000D01*
X14247000Y-7978000D02*
G75*
G03*
X14357000Y-7978000I55000J0D01*
G01*
X14357000Y-7878000D02*
G75*
G03*
X14247000Y-7878000I-55000J0D01*
G01*
D12*
X14357000Y-8328000D02*
G75*
G03*
X14357000Y-8328000I-55000J0D01*
G01*
D11*
X14247000Y-8278000D02*
X14247000Y-8378000D01*
X14357000Y-8278000D02*
X14357000Y-8378000D01*
X14247000Y-8378000D02*
G75*
G03*
X14357000Y-8378000I55000J0D01*
G01*
X14357000Y-8278000D02*
G75*
G03*
X14247000Y-8278000I-55000J0D01*
G01*
D12*
X14357000Y-8728000D02*
G75*
G03*
X14357000Y-8728000I-55000J0D01*
G01*
D11*
X14247000Y-8678000D02*
X14247000Y-8778000D01*
X14357000Y-8678000D02*
X14357000Y-8778000D01*
X14247000Y-8778000D02*
G75*
G03*
X14357000Y-8778000I55000J0D01*
G01*
X14357000Y-8678000D02*
G75*
G03*
X14247000Y-8678000I-55000J0D01*
G01*
D12*
X14357000Y-9128000D02*
G75*
G03*
X14357000Y-9128000I-55000J0D01*
G01*
D11*
X14247000Y-9078000D02*
X14247000Y-9178000D01*
X14357000Y-9078000D02*
X14357000Y-9178000D01*
X14247000Y-9178000D02*
G75*
G03*
X14357000Y-9178000I55000J0D01*
G01*
X14357000Y-9078000D02*
G75*
G03*
X14247000Y-9078000I-55000J0D01*
G01*
D12*
X14357000Y-9528000D02*
G75*
G03*
X14357000Y-9528000I-55000J0D01*
G01*
D11*
X14247000Y-9478000D02*
X14247000Y-9578000D01*
X14357000Y-9478000D02*
X14357000Y-9578000D01*
X14247000Y-9578000D02*
G75*
G03*
X14357000Y-9578000I55000J0D01*
G01*
X14357000Y-9478000D02*
G75*
G03*
X14247000Y-9478000I-55000J0D01*
G01*
D12*
X15217000Y-6728000D02*
G75*
G03*
X15217000Y-6728000I-55000J0D01*
G01*
D11*
X15107000Y-6678000D02*
X15107000Y-6778000D01*
X15217000Y-6678000D02*
X15217000Y-6778000D01*
X15107000Y-6778000D02*
G75*
G03*
X15217000Y-6778000I55000J0D01*
G01*
X15217000Y-6678000D02*
G75*
G03*
X15107000Y-6678000I-55000J0D01*
G01*
D12*
X15217000Y-7128000D02*
G75*
G03*
X15217000Y-7128000I-55000J0D01*
G01*
D11*
X15107000Y-7078000D02*
X15107000Y-7178000D01*
X15217000Y-7078000D02*
X15217000Y-7178000D01*
X15107000Y-7178000D02*
G75*
G03*
X15217000Y-7178000I55000J0D01*
G01*
X15217000Y-7078000D02*
G75*
G03*
X15107000Y-7078000I-55000J0D01*
G01*
D12*
X15217000Y-7528000D02*
G75*
G03*
X15217000Y-7528000I-55000J0D01*
G01*
D11*
X15107000Y-7478000D02*
X15107000Y-7578000D01*
X15217000Y-7478000D02*
X15217000Y-7578000D01*
X15107000Y-7578000D02*
G75*
G03*
X15217000Y-7578000I55000J0D01*
G01*
X15217000Y-7478000D02*
G75*
G03*
X15107000Y-7478000I-55000J0D01*
G01*
D12*
X15217000Y-7928000D02*
G75*
G03*
X15217000Y-7928000I-55000J0D01*
G01*
D11*
X15107000Y-7878000D02*
X15107000Y-7978000D01*
X15217000Y-7878000D02*
X15217000Y-7978000D01*
X15107000Y-7978000D02*
G75*
G03*
X15217000Y-7978000I55000J0D01*
G01*
X15217000Y-7878000D02*
G75*
G03*
X15107000Y-7878000I-55000J0D01*
G01*
D12*
X15217000Y-8328000D02*
G75*
G03*
X15217000Y-8328000I-55000J0D01*
G01*
D11*
X15107000Y-8278000D02*
X15107000Y-8378000D01*
X15217000Y-8278000D02*
X15217000Y-8378000D01*
X15107000Y-8378000D02*
G75*
G03*
X15217000Y-8378000I55000J0D01*
G01*
X15217000Y-8278000D02*
G75*
G03*
X15107000Y-8278000I-55000J0D01*
G01*
D12*
X15217000Y-8728000D02*
G75*
G03*
X15217000Y-8728000I-55000J0D01*
G01*
D11*
X15107000Y-8678000D02*
X15107000Y-8778000D01*
X15217000Y-8678000D02*
X15217000Y-8778000D01*
X15107000Y-8778000D02*
G75*
G03*
X15217000Y-8778000I55000J0D01*
G01*
X15217000Y-8678000D02*
G75*
G03*
X15107000Y-8678000I-55000J0D01*
G01*
D12*
X15217000Y-9128000D02*
G75*
G03*
X15217000Y-9128000I-55000J0D01*
G01*
D11*
X15107000Y-9078000D02*
X15107000Y-9178000D01*
X15217000Y-9078000D02*
X15217000Y-9178000D01*
X15107000Y-9178000D02*
G75*
G03*
X15217000Y-9178000I55000J0D01*
G01*
X15217000Y-9078000D02*
G75*
G03*
X15107000Y-9078000I-55000J0D01*
G01*
D12*
X15217000Y-9528000D02*
G75*
G03*
X15217000Y-9528000I-55000J0D01*
G01*
D11*
X15107000Y-9478000D02*
X15107000Y-9578000D01*
X15217000Y-9478000D02*
X15217000Y-9578000D01*
X15107000Y-9578000D02*
G75*
G03*
X15217000Y-9578000I55000J0D01*
G01*
X15217000Y-9478000D02*
G75*
G03*
X15107000Y-9478000I-55000J0D01*
G01*
X13460619Y-10729476D02*
X13460619Y-10529476D01*
X13508238Y-10529476D01*
X13536809Y-10539000D01*
X13555857Y-10558048D01*
X13565381Y-10577095D01*
X13574905Y-10615190D01*
X13574905Y-10643762D01*
X13565381Y-10681857D01*
X13555857Y-10700905D01*
X13536809Y-10719952D01*
X13508238Y-10729476D01*
X13460619Y-10729476D01*
X13660619Y-10729476D02*
X13660619Y-10596143D01*
X13660619Y-10634238D02*
X13670143Y-10615190D01*
X13679667Y-10605667D01*
X13698714Y-10596143D01*
X13717762Y-10596143D01*
X13784428Y-10729476D02*
X13784428Y-10596143D01*
X13784428Y-10529476D02*
X13774905Y-10539000D01*
X13784428Y-10548524D01*
X13793952Y-10539000D01*
X13784428Y-10529476D01*
X13784428Y-10548524D01*
X13908238Y-10729476D02*
X13889190Y-10719952D01*
X13879667Y-10700905D01*
X13879667Y-10529476D01*
X14013000Y-10729476D02*
X13993952Y-10719952D01*
X13984428Y-10700905D01*
X13984428Y-10529476D01*
X14241571Y-10729476D02*
X14241571Y-10529476D01*
X14308238Y-10672333D01*
X14374905Y-10529476D01*
X14374905Y-10729476D01*
X14555857Y-10729476D02*
X14555857Y-10624714D01*
X14546333Y-10605667D01*
X14527286Y-10596143D01*
X14489190Y-10596143D01*
X14470143Y-10605667D01*
X14555857Y-10719952D02*
X14536809Y-10729476D01*
X14489190Y-10729476D01*
X14470143Y-10719952D01*
X14460619Y-10700905D01*
X14460619Y-10681857D01*
X14470143Y-10662810D01*
X14489190Y-10653286D01*
X14536809Y-10653286D01*
X14555857Y-10643762D01*
X14651095Y-10596143D02*
X14651095Y-10796143D01*
X14651095Y-10605667D02*
X14670143Y-10596143D01*
X14708238Y-10596143D01*
X14727286Y-10605667D01*
X14736809Y-10615190D01*
X14746333Y-10634238D01*
X14746333Y-10691381D01*
X14736809Y-10710429D01*
X14727286Y-10719952D01*
X14708238Y-10729476D01*
X14670143Y-10729476D01*
X14651095Y-10719952D01*
X14832048Y-10710429D02*
X14841571Y-10719952D01*
X14832048Y-10729476D01*
X14822524Y-10719952D01*
X14832048Y-10710429D01*
X14832048Y-10729476D01*
X14832048Y-10605667D02*
X14841571Y-10615190D01*
X14832048Y-10624714D01*
X14822524Y-10615190D01*
X14832048Y-10605667D01*
X14832048Y-10624714D01*
D10*
X13103000Y-11009000D02*
X13203000Y-11109000D01*
X13203000Y-11009000D02*
X13103000Y-11109000D01*
D11*
X13565381Y-11149476D02*
X13451095Y-11149476D01*
X13508238Y-11149476D02*
X13508238Y-10949476D01*
X13489190Y-10978048D01*
X13470143Y-10997095D01*
X13451095Y-11006619D01*
X13651095Y-11130429D02*
X13660619Y-11139952D01*
X13651095Y-11149476D01*
X13641571Y-11139952D01*
X13651095Y-11130429D01*
X13651095Y-11149476D01*
X13784428Y-10949476D02*
X13803476Y-10949476D01*
X13822524Y-10959000D01*
X13832048Y-10968524D01*
X13841571Y-10987571D01*
X13851095Y-11025667D01*
X13851095Y-11073286D01*
X13841571Y-11111381D01*
X13832048Y-11130429D01*
X13822524Y-11139952D01*
X13803476Y-11149476D01*
X13784428Y-11149476D01*
X13765381Y-11139952D01*
X13755857Y-11130429D01*
X13746333Y-11111381D01*
X13736809Y-11073286D01*
X13736809Y-11025667D01*
X13746333Y-10987571D01*
X13755857Y-10968524D01*
X13765381Y-10959000D01*
X13784428Y-10949476D01*
X13974905Y-10949476D02*
X13993952Y-10949476D01*
X14013000Y-10959000D01*
X14022524Y-10968524D01*
X14032048Y-10987571D01*
X14041571Y-11025667D01*
X14041571Y-11073286D01*
X14032048Y-11111381D01*
X14022524Y-11130429D01*
X14013000Y-11139952D01*
X13993952Y-11149476D01*
X13974905Y-11149476D01*
X13955857Y-11139952D01*
X13946333Y-11130429D01*
X13936809Y-11111381D01*
X13927286Y-11073286D01*
X13927286Y-11025667D01*
X13936809Y-10987571D01*
X13946333Y-10968524D01*
X13955857Y-10959000D01*
X13974905Y-10949476D01*
X14165381Y-10949476D02*
X14184428Y-10949476D01*
X14203476Y-10959000D01*
X14213000Y-10968524D01*
X14222524Y-10987571D01*
X14232048Y-11025667D01*
X14232048Y-11073286D01*
X14222524Y-11111381D01*
X14213000Y-11130429D01*
X14203476Y-11139952D01*
X14184428Y-11149476D01*
X14165381Y-11149476D01*
X14146333Y-11139952D01*
X14136809Y-11130429D01*
X14127286Y-11111381D01*
X14117762Y-11073286D01*
X14117762Y-11025667D01*
X14127286Y-10987571D01*
X14136809Y-10968524D01*
X14146333Y-10959000D01*
X14165381Y-10949476D01*
X14317762Y-11149476D02*
X14317762Y-11016143D01*
X14317762Y-11035190D02*
X14327286Y-11025667D01*
X14346333Y-11016143D01*
X14374905Y-11016143D01*
X14393952Y-11025667D01*
X14403476Y-11044714D01*
X14403476Y-11149476D01*
X14403476Y-11044714D02*
X14413000Y-11025667D01*
X14432048Y-11016143D01*
X14460619Y-11016143D01*
X14479667Y-11025667D01*
X14489190Y-11044714D01*
X14489190Y-11149476D01*
X14584428Y-11149476D02*
X14584428Y-11016143D01*
X14584428Y-11035190D02*
X14593952Y-11025667D01*
X14613000Y-11016143D01*
X14641571Y-11016143D01*
X14660619Y-11025667D01*
X14670143Y-11044714D01*
X14670143Y-11149476D01*
X14670143Y-11044714D02*
X14679667Y-11025667D01*
X14698714Y-11016143D01*
X14727286Y-11016143D01*
X14746333Y-11025667D01*
X14755857Y-11044714D01*
X14755857Y-11149476D01*
X15146333Y-10939952D02*
X14974905Y-11197095D01*
X15403476Y-10949476D02*
X15422524Y-10949476D01*
X15441571Y-10959000D01*
X15451095Y-10968524D01*
X15460619Y-10987571D01*
X15470143Y-11025667D01*
X15470143Y-11073286D01*
X15460619Y-11111381D01*
X15451095Y-11130429D01*
X15441571Y-11139952D01*
X15422524Y-11149476D01*
X15403476Y-11149476D01*
X15384428Y-11139952D01*
X15374905Y-11130429D01*
X15365381Y-11111381D01*
X15355857Y-11073286D01*
X15355857Y-11025667D01*
X15365381Y-10987571D01*
X15374905Y-10968524D01*
X15384428Y-10959000D01*
X15403476Y-10949476D01*
X15555857Y-11130429D02*
X15565381Y-11139952D01*
X15555857Y-11149476D01*
X15546333Y-11139952D01*
X15555857Y-11130429D01*
X15555857Y-11149476D01*
X15689190Y-10949476D02*
X15708238Y-10949476D01*
X15727286Y-10959000D01*
X15736809Y-10968524D01*
X15746333Y-10987571D01*
X15755857Y-11025667D01*
X15755857Y-11073286D01*
X15746333Y-11111381D01*
X15736809Y-11130429D01*
X15727286Y-11139952D01*
X15708238Y-11149476D01*
X15689190Y-11149476D01*
X15670143Y-11139952D01*
X15660619Y-11130429D01*
X15651095Y-11111381D01*
X15641571Y-11073286D01*
X15641571Y-11025667D01*
X15651095Y-10987571D01*
X15660619Y-10968524D01*
X15670143Y-10959000D01*
X15689190Y-10949476D01*
X15822524Y-10949476D02*
X15946333Y-10949476D01*
X15879667Y-11025667D01*
X15908238Y-11025667D01*
X15927286Y-11035190D01*
X15936809Y-11044714D01*
X15946333Y-11063762D01*
X15946333Y-11111381D01*
X15936809Y-11130429D01*
X15927286Y-11139952D01*
X15908238Y-11149476D01*
X15851095Y-11149476D01*
X15832048Y-11139952D01*
X15822524Y-11130429D01*
X16041571Y-11149476D02*
X16079667Y-11149476D01*
X16098714Y-11139952D01*
X16108238Y-11130429D01*
X16127286Y-11101857D01*
X16136809Y-11063762D01*
X16136809Y-10987571D01*
X16127286Y-10968524D01*
X16117762Y-10959000D01*
X16098714Y-10949476D01*
X16060619Y-10949476D01*
X16041571Y-10959000D01*
X16032048Y-10968524D01*
X16022524Y-10987571D01*
X16022524Y-11035190D01*
X16032048Y-11054238D01*
X16041571Y-11063762D01*
X16060619Y-11073286D01*
X16098714Y-11073286D01*
X16117762Y-11063762D01*
X16127286Y-11054238D01*
X16136809Y-11035190D01*
X16308238Y-11016143D02*
X16308238Y-11149476D01*
X16260619Y-10939952D02*
X16213000Y-11082810D01*
X16336809Y-11082810D01*
X16403476Y-10949476D02*
X16403476Y-10987571D01*
X16479667Y-10949476D02*
X16479667Y-10987571D01*
X16774905Y-11225667D02*
X16765381Y-11216143D01*
X16746333Y-11187571D01*
X16736809Y-11168524D01*
X16727286Y-11139952D01*
X16717762Y-11092333D01*
X16717762Y-11054238D01*
X16727286Y-11006619D01*
X16736809Y-10978048D01*
X16746333Y-10959000D01*
X16765381Y-10930429D01*
X16774905Y-10920905D01*
X16955857Y-11149476D02*
X16841571Y-11149476D01*
X16898714Y-11149476D02*
X16898714Y-10949476D01*
X16879667Y-10978048D01*
X16860619Y-10997095D01*
X16841571Y-11006619D01*
X17127286Y-10949476D02*
X17089190Y-10949476D01*
X17070143Y-10959000D01*
X17060619Y-10968524D01*
X17041571Y-10997095D01*
X17032048Y-11035190D01*
X17032048Y-11111381D01*
X17041571Y-11130429D01*
X17051095Y-11139952D01*
X17070143Y-11149476D01*
X17108238Y-11149476D01*
X17127286Y-11139952D01*
X17136810Y-11130429D01*
X17146333Y-11111381D01*
X17146333Y-11063762D01*
X17136810Y-11044714D01*
X17127286Y-11035190D01*
X17108238Y-11025667D01*
X17070143Y-11025667D01*
X17051095Y-11035190D01*
X17041571Y-11044714D01*
X17032048Y-11063762D01*
X17384429Y-11149476D02*
X17384429Y-10949476D01*
X17470143Y-11149476D02*
X17470143Y-11044714D01*
X17460619Y-11025667D01*
X17441571Y-11016143D01*
X17413000Y-11016143D01*
X17393952Y-11025667D01*
X17384429Y-11035190D01*
X17593952Y-11149476D02*
X17574905Y-11139952D01*
X17565381Y-11130429D01*
X17555857Y-11111381D01*
X17555857Y-11054238D01*
X17565381Y-11035190D01*
X17574905Y-11025667D01*
X17593952Y-11016143D01*
X17622524Y-11016143D01*
X17641571Y-11025667D01*
X17651095Y-11035190D01*
X17660619Y-11054238D01*
X17660619Y-11111381D01*
X17651095Y-11130429D01*
X17641571Y-11139952D01*
X17622524Y-11149476D01*
X17593952Y-11149476D01*
X17774905Y-11149476D02*
X17755857Y-11139952D01*
X17746333Y-11120905D01*
X17746333Y-10949476D01*
X17927286Y-11139952D02*
X17908238Y-11149476D01*
X17870143Y-11149476D01*
X17851095Y-11139952D01*
X17841571Y-11120905D01*
X17841571Y-11044714D01*
X17851095Y-11025667D01*
X17870143Y-11016143D01*
X17908238Y-11016143D01*
X17927286Y-11025667D01*
X17936810Y-11044714D01*
X17936810Y-11063762D01*
X17841571Y-11082810D01*
X18013000Y-11139952D02*
X18032048Y-11149476D01*
X18070143Y-11149476D01*
X18089190Y-11139952D01*
X18098714Y-11120905D01*
X18098714Y-11111381D01*
X18089190Y-11092333D01*
X18070143Y-11082810D01*
X18041571Y-11082810D01*
X18022524Y-11073286D01*
X18013000Y-11054238D01*
X18013000Y-11044714D01*
X18022524Y-11025667D01*
X18041571Y-11016143D01*
X18070143Y-11016143D01*
X18089190Y-11025667D01*
X18165381Y-11225667D02*
X18174905Y-11216143D01*
X18193952Y-11187571D01*
X18203476Y-11168524D01*
X18213000Y-11139952D01*
X18222524Y-11092333D01*
X18222524Y-11054238D01*
X18213000Y-11006619D01*
X18203476Y-10978048D01*
X18193952Y-10959000D01*
X18174905Y-10930429D01*
X18165381Y-10920905D01*
D12*
X13203000Y-11323000D02*
G75*
G03*
X13203000Y-11323000I-55000J0D01*
G01*
D11*
X13565381Y-11413476D02*
X13451095Y-11413476D01*
X13508238Y-11413476D02*
X13508238Y-11213476D01*
X13489190Y-11242048D01*
X13470143Y-11261095D01*
X13451095Y-11270619D01*
X13651095Y-11394428D02*
X13660619Y-11403952D01*
X13651095Y-11413476D01*
X13641571Y-11403952D01*
X13651095Y-11394428D01*
X13651095Y-11413476D01*
X13851095Y-11413476D02*
X13736809Y-11413476D01*
X13793952Y-11413476D02*
X13793952Y-11213476D01*
X13774905Y-11242048D01*
X13755857Y-11261095D01*
X13736809Y-11270619D01*
X13974905Y-11213476D02*
X13993952Y-11213476D01*
X14013000Y-11223000D01*
X14022524Y-11232524D01*
X14032048Y-11251571D01*
X14041571Y-11289667D01*
X14041571Y-11337286D01*
X14032048Y-11375381D01*
X14022524Y-11394428D01*
X14013000Y-11403952D01*
X13993952Y-11413476D01*
X13974905Y-11413476D01*
X13955857Y-11403952D01*
X13946333Y-11394428D01*
X13936809Y-11375381D01*
X13927286Y-11337286D01*
X13927286Y-11289667D01*
X13936809Y-11251571D01*
X13946333Y-11232524D01*
X13955857Y-11223000D01*
X13974905Y-11213476D01*
X14165381Y-11213476D02*
X14184428Y-11213476D01*
X14203476Y-11223000D01*
X14213000Y-11232524D01*
X14222524Y-11251571D01*
X14232048Y-11289667D01*
X14232048Y-11337286D01*
X14222524Y-11375381D01*
X14213000Y-11394428D01*
X14203476Y-11403952D01*
X14184428Y-11413476D01*
X14165381Y-11413476D01*
X14146333Y-11403952D01*
X14136809Y-11394428D01*
X14127286Y-11375381D01*
X14117762Y-11337286D01*
X14117762Y-11289667D01*
X14127286Y-11251571D01*
X14136809Y-11232524D01*
X14146333Y-11223000D01*
X14165381Y-11213476D01*
X14317762Y-11413476D02*
X14317762Y-11280143D01*
X14317762Y-11299190D02*
X14327286Y-11289667D01*
X14346333Y-11280143D01*
X14374905Y-11280143D01*
X14393952Y-11289667D01*
X14403476Y-11308714D01*
X14403476Y-11413476D01*
X14403476Y-11308714D02*
X14413000Y-11289667D01*
X14432048Y-11280143D01*
X14460619Y-11280143D01*
X14479667Y-11289667D01*
X14489190Y-11308714D01*
X14489190Y-11413476D01*
X14584428Y-11413476D02*
X14584428Y-11280143D01*
X14584428Y-11299190D02*
X14593952Y-11289667D01*
X14613000Y-11280143D01*
X14641571Y-11280143D01*
X14660619Y-11289667D01*
X14670143Y-11308714D01*
X14670143Y-11413476D01*
X14670143Y-11308714D02*
X14679667Y-11289667D01*
X14698714Y-11280143D01*
X14727286Y-11280143D01*
X14746333Y-11289667D01*
X14755857Y-11308714D01*
X14755857Y-11413476D01*
X15146333Y-11203952D02*
X14974905Y-11461095D01*
X15403476Y-11213476D02*
X15422524Y-11213476D01*
X15441571Y-11223000D01*
X15451095Y-11232524D01*
X15460619Y-11251571D01*
X15470143Y-11289667D01*
X15470143Y-11337286D01*
X15460619Y-11375381D01*
X15451095Y-11394428D01*
X15441571Y-11403952D01*
X15422524Y-11413476D01*
X15403476Y-11413476D01*
X15384428Y-11403952D01*
X15374905Y-11394428D01*
X15365381Y-11375381D01*
X15355857Y-11337286D01*
X15355857Y-11289667D01*
X15365381Y-11251571D01*
X15374905Y-11232524D01*
X15384428Y-11223000D01*
X15403476Y-11213476D01*
X15555857Y-11394428D02*
X15565381Y-11403952D01*
X15555857Y-11413476D01*
X15546333Y-11403952D01*
X15555857Y-11394428D01*
X15555857Y-11413476D01*
X15689190Y-11213476D02*
X15708238Y-11213476D01*
X15727286Y-11223000D01*
X15736809Y-11232524D01*
X15746333Y-11251571D01*
X15755857Y-11289667D01*
X15755857Y-11337286D01*
X15746333Y-11375381D01*
X15736809Y-11394428D01*
X15727286Y-11403952D01*
X15708238Y-11413476D01*
X15689190Y-11413476D01*
X15670143Y-11403952D01*
X15660619Y-11394428D01*
X15651095Y-11375381D01*
X15641571Y-11337286D01*
X15641571Y-11289667D01*
X15651095Y-11251571D01*
X15660619Y-11232524D01*
X15670143Y-11223000D01*
X15689190Y-11213476D01*
X15927286Y-11280143D02*
X15927286Y-11413476D01*
X15879667Y-11203952D02*
X15832048Y-11346809D01*
X15955857Y-11346809D01*
X16013000Y-11213476D02*
X16136809Y-11213476D01*
X16070143Y-11289667D01*
X16098714Y-11289667D01*
X16117762Y-11299190D01*
X16127286Y-11308714D01*
X16136809Y-11327762D01*
X16136809Y-11375381D01*
X16127286Y-11394428D01*
X16117762Y-11403952D01*
X16098714Y-11413476D01*
X16041571Y-11413476D01*
X16022524Y-11403952D01*
X16013000Y-11394428D01*
X16203476Y-11213476D02*
X16327286Y-11213476D01*
X16260619Y-11289667D01*
X16289190Y-11289667D01*
X16308238Y-11299190D01*
X16317762Y-11308714D01*
X16327286Y-11327762D01*
X16327286Y-11375381D01*
X16317762Y-11394428D01*
X16308238Y-11403952D01*
X16289190Y-11413476D01*
X16232048Y-11413476D01*
X16213000Y-11403952D01*
X16203476Y-11394428D01*
X16403476Y-11213476D02*
X16403476Y-11251571D01*
X16479667Y-11213476D02*
X16479667Y-11251571D01*
X16774905Y-11489667D02*
X16765381Y-11480143D01*
X16746333Y-11451571D01*
X16736809Y-11432524D01*
X16727286Y-11403952D01*
X16717762Y-11356333D01*
X16717762Y-11318238D01*
X16727286Y-11270619D01*
X16736809Y-11242048D01*
X16746333Y-11223000D01*
X16765381Y-11194428D01*
X16774905Y-11184905D01*
X16889190Y-11213476D02*
X16908238Y-11213476D01*
X16927286Y-11223000D01*
X16936810Y-11232524D01*
X16946333Y-11251571D01*
X16955857Y-11289667D01*
X16955857Y-11337286D01*
X16946333Y-11375381D01*
X16936810Y-11394428D01*
X16927286Y-11403952D01*
X16908238Y-11413476D01*
X16889190Y-11413476D01*
X16870143Y-11403952D01*
X16860619Y-11394428D01*
X16851095Y-11375381D01*
X16841571Y-11337286D01*
X16841571Y-11289667D01*
X16851095Y-11251571D01*
X16860619Y-11232524D01*
X16870143Y-11223000D01*
X16889190Y-11213476D01*
X17193952Y-11413476D02*
X17193952Y-11213476D01*
X17279667Y-11413476D02*
X17279667Y-11308714D01*
X17270143Y-11289667D01*
X17251095Y-11280143D01*
X17222524Y-11280143D01*
X17203476Y-11289667D01*
X17193952Y-11299190D01*
X17403476Y-11413476D02*
X17384429Y-11403952D01*
X17374905Y-11394428D01*
X17365381Y-11375381D01*
X17365381Y-11318238D01*
X17374905Y-11299190D01*
X17384429Y-11289667D01*
X17403476Y-11280143D01*
X17432048Y-11280143D01*
X17451095Y-11289667D01*
X17460619Y-11299190D01*
X17470143Y-11318238D01*
X17470143Y-11375381D01*
X17460619Y-11394428D01*
X17451095Y-11403952D01*
X17432048Y-11413476D01*
X17403476Y-11413476D01*
X17584429Y-11413476D02*
X17565381Y-11403952D01*
X17555857Y-11384905D01*
X17555857Y-11213476D01*
X17736810Y-11403952D02*
X17717762Y-11413476D01*
X17679667Y-11413476D01*
X17660619Y-11403952D01*
X17651095Y-11384905D01*
X17651095Y-11308714D01*
X17660619Y-11289667D01*
X17679667Y-11280143D01*
X17717762Y-11280143D01*
X17736810Y-11289667D01*
X17746333Y-11308714D01*
X17746333Y-11327762D01*
X17651095Y-11346809D01*
X17822524Y-11403952D02*
X17841571Y-11413476D01*
X17879667Y-11413476D01*
X17898714Y-11403952D01*
X17908238Y-11384905D01*
X17908238Y-11375381D01*
X17898714Y-11356333D01*
X17879667Y-11346809D01*
X17851095Y-11346809D01*
X17832048Y-11337286D01*
X17822524Y-11318238D01*
X17822524Y-11308714D01*
X17832048Y-11289667D01*
X17851095Y-11280143D01*
X17879667Y-11280143D01*
X17898714Y-11289667D01*
X18146333Y-11337286D02*
X18298714Y-11337286D01*
X18222524Y-11413476D02*
X18222524Y-11261095D01*
X18651095Y-11413476D02*
X18536810Y-11413476D01*
X18593952Y-11413476D02*
X18593952Y-11213476D01*
X18574905Y-11242048D01*
X18555857Y-11261095D01*
X18536810Y-11270619D01*
X18822524Y-11213476D02*
X18784429Y-11213476D01*
X18765381Y-11223000D01*
X18755857Y-11232524D01*
X18736810Y-11261095D01*
X18727286Y-11299190D01*
X18727286Y-11375381D01*
X18736810Y-11394428D01*
X18746333Y-11403952D01*
X18765381Y-11413476D01*
X18803476Y-11413476D01*
X18822524Y-11403952D01*
X18832048Y-11394428D01*
X18841571Y-11375381D01*
X18841571Y-11327762D01*
X18832048Y-11308714D01*
X18822524Y-11299190D01*
X18803476Y-11289667D01*
X18765381Y-11289667D01*
X18746333Y-11299190D01*
X18736810Y-11308714D01*
X18727286Y-11327762D01*
X19070143Y-11403952D02*
X19089190Y-11413476D01*
X19127286Y-11413476D01*
X19146333Y-11403952D01*
X19155857Y-11384905D01*
X19155857Y-11375381D01*
X19146333Y-11356333D01*
X19127286Y-11346809D01*
X19098714Y-11346809D01*
X19079667Y-11337286D01*
X19070143Y-11318238D01*
X19070143Y-11308714D01*
X19079667Y-11289667D01*
X19098714Y-11280143D01*
X19127286Y-11280143D01*
X19146333Y-11289667D01*
X19270143Y-11413476D02*
X19251095Y-11403952D01*
X19241571Y-11384905D01*
X19241571Y-11213476D01*
X19374905Y-11413476D02*
X19355857Y-11403952D01*
X19346333Y-11394428D01*
X19336810Y-11375381D01*
X19336810Y-11318238D01*
X19346333Y-11299190D01*
X19355857Y-11289667D01*
X19374905Y-11280143D01*
X19403476Y-11280143D01*
X19422524Y-11289667D01*
X19432048Y-11299190D01*
X19441571Y-11318238D01*
X19441571Y-11375381D01*
X19432048Y-11394428D01*
X19422524Y-11403952D01*
X19403476Y-11413476D01*
X19374905Y-11413476D01*
X19498714Y-11280143D02*
X19574905Y-11280143D01*
X19527286Y-11213476D02*
X19527286Y-11384905D01*
X19536810Y-11403952D01*
X19555857Y-11413476D01*
X19574905Y-11413476D01*
X19632048Y-11403952D02*
X19651095Y-11413476D01*
X19689190Y-11413476D01*
X19708238Y-11403952D01*
X19717762Y-11384905D01*
X19717762Y-11375381D01*
X19708238Y-11356333D01*
X19689190Y-11346809D01*
X19660619Y-11346809D01*
X19641571Y-11337286D01*
X19632048Y-11318238D01*
X19632048Y-11308714D01*
X19641571Y-11289667D01*
X19660619Y-11280143D01*
X19689190Y-11280143D01*
X19708238Y-11289667D01*
X19784429Y-11489667D02*
X19793952Y-11480143D01*
X19813000Y-11451571D01*
X19822524Y-11432524D01*
X19832048Y-11403952D01*
X19841571Y-11356333D01*
X19841571Y-11318238D01*
X19832048Y-11270619D01*
X19822524Y-11242048D01*
X19813000Y-11223000D01*
X19793952Y-11194428D01*
X19784429Y-11184905D01*
M02*
