%TF.GenerationSoftware,KiCad,Pcbnew,(6.0.11)*%
%TF.CreationDate,2023-02-06T20:57:08+10:00*%
%TF.ProjectId,can_explorer,63616e5f-6578-4706-9c6f-7265722e6b69,rev?*%
%TF.SameCoordinates,Original*%
%TF.FileFunction,Copper,L1,Top*%
%TF.FilePolarity,Positive*%
%FSLAX46Y46*%
G04 Gerber Fmt 4.6, Leading zero omitted, Abs format (unit mm)*
G04 Created by KiCad (PCBNEW (6.0.11)) date 2023-02-06 20:57:08*
%MOMM*%
%LPD*%
G01*
G04 APERTURE LIST*
%TA.AperFunction,ComponentPad*%
%ADD10R,2.000000X3.000000*%
%TD*%
%TA.AperFunction,ComponentPad*%
%ADD11O,2.000000X3.000000*%
%TD*%
%TA.AperFunction,ComponentPad*%
%ADD12R,1.700000X1.700000*%
%TD*%
%TA.AperFunction,ComponentPad*%
%ADD13O,1.700000X1.700000*%
%TD*%
G04 APERTURE END LIST*
D10*
%TO.P,J1,1,Pin_1*%
%TO.N,Net-(J1-Pad1)*%
X143020000Y-67280000D03*
D11*
%TO.P,J1,2,Pin_2*%
%TO.N,Net-(J1-Pad2)*%
X143020000Y-71280000D03*
%TO.P,J1,3,Pin_3*%
%TO.N,Net-(J1-Pad3)*%
X143020000Y-75280000D03*
%TO.P,J1,4,Pin_4*%
%TO.N,GND*%
X143020000Y-79280000D03*
%TO.P,J1,5,Pin_5*%
%TO.N,Net-(J1-Pad5)*%
X143020000Y-83280000D03*
%TO.P,J1,6,Pin_6*%
%TO.N,Net-(J1-Pad6)*%
X143020000Y-87280000D03*
%TO.P,J1,7,Pin_7*%
%TO.N,Net-(J1-Pad7)*%
X143020000Y-91280000D03*
%TO.P,J1,8,Pin_8*%
%TO.N,Net-(J1-Pad8)*%
X143020000Y-95280000D03*
%TO.P,J1,9,Pin_9*%
%TO.N,Net-(J1-Pad9)*%
X151620000Y-67280000D03*
%TO.P,J1,10,Pin_10*%
%TO.N,Net-(J1-Pad10)*%
X151620000Y-71280000D03*
%TO.P,J1,11,Pin_11*%
%TO.N,Net-(J1-Pad11)*%
X151620000Y-75280000D03*
%TO.P,J1,12,Pin_12*%
%TO.N,Net-(J1-Pad12)*%
X151620000Y-79280000D03*
%TO.P,J1,13,Pin_13*%
%TO.N,Net-(J1-Pad13)*%
X151620000Y-83280000D03*
%TO.P,J1,14,Pin_14*%
%TO.N,Net-(J1-Pad14)*%
X151620000Y-87280000D03*
%TO.P,J1,15,Pin_15*%
%TO.N,Net-(J1-Pad15)*%
X151620000Y-91280000D03*
%TO.P,J1,16,Pin_16*%
%TO.N,Net-(J1-Pad16)*%
X151620000Y-95280000D03*
%TD*%
D12*
%TO.P,J2,1,Pin_1*%
%TO.N,Net-(J1-Pad1)*%
X134620000Y-72390000D03*
D13*
%TO.P,J2,2,Pin_2*%
%TO.N,Net-(J1-Pad2)*%
X134620000Y-74930000D03*
%TO.P,J2,3,Pin_3*%
%TO.N,Net-(J1-Pad3)*%
X134620000Y-77470000D03*
%TO.P,J2,4,Pin_4*%
%TO.N,GND*%
X134620000Y-80010000D03*
%TO.P,J2,5,Pin_5*%
%TO.N,Net-(J1-Pad5)*%
X134620000Y-82550000D03*
%TO.P,J2,6,Pin_6*%
%TO.N,Net-(J1-Pad6)*%
X134620000Y-85090000D03*
%TO.P,J2,7,Pin_7*%
%TO.N,Net-(J1-Pad7)*%
X134620000Y-87630000D03*
%TO.P,J2,8,Pin_8*%
%TO.N,Net-(J1-Pad8)*%
X134620000Y-90170000D03*
%TD*%
D12*
%TO.P,J3,1,Pin_1*%
%TO.N,Net-(J1-Pad9)*%
X160020000Y-72390000D03*
D13*
%TO.P,J3,2,Pin_2*%
%TO.N,Net-(J1-Pad10)*%
X160020000Y-74930000D03*
%TO.P,J3,3,Pin_3*%
%TO.N,Net-(J1-Pad11)*%
X160020000Y-77470000D03*
%TO.P,J3,4,Pin_4*%
%TO.N,Net-(J1-Pad12)*%
X160020000Y-80010000D03*
%TO.P,J3,5,Pin_5*%
%TO.N,Net-(J1-Pad13)*%
X160020000Y-82550000D03*
%TO.P,J3,6,Pin_6*%
%TO.N,Net-(J1-Pad14)*%
X160020000Y-85090000D03*
%TO.P,J3,7,Pin_7*%
%TO.N,Net-(J1-Pad15)*%
X160020000Y-87630000D03*
%TO.P,J3,8,Pin_8*%
%TO.N,Net-(J1-Pad16)*%
X160020000Y-90170000D03*
%TD*%
%TA.AperFunction,Conductor*%
%TO.N,GND*%
G36*
X160931163Y-59055607D02*
G01*
X161107740Y-59072999D01*
X161131957Y-59077815D01*
X161295809Y-59127518D01*
X161318629Y-59136971D01*
X161469631Y-59217683D01*
X161490158Y-59231399D01*
X161622521Y-59340026D01*
X161639974Y-59357479D01*
X161748601Y-59489842D01*
X161762319Y-59510372D01*
X161843029Y-59661371D01*
X161852482Y-59684190D01*
X161902185Y-59848043D01*
X161907002Y-59872263D01*
X161924393Y-60048837D01*
X161925000Y-60061187D01*
X161925000Y-102498813D01*
X161924393Y-102511163D01*
X161907002Y-102687737D01*
X161902185Y-102711957D01*
X161852482Y-102875809D01*
X161843029Y-102898629D01*
X161762319Y-103049628D01*
X161748601Y-103070158D01*
X161639974Y-103202521D01*
X161622521Y-103219974D01*
X161490158Y-103328601D01*
X161469631Y-103342317D01*
X161377417Y-103391607D01*
X161318629Y-103423029D01*
X161295810Y-103432482D01*
X161131957Y-103482185D01*
X161107740Y-103487001D01*
X160931163Y-103504393D01*
X160918813Y-103505000D01*
X133721187Y-103505000D01*
X133708837Y-103504393D01*
X133532260Y-103487001D01*
X133508043Y-103482185D01*
X133344190Y-103432482D01*
X133321371Y-103423029D01*
X133262583Y-103391607D01*
X133170369Y-103342317D01*
X133149842Y-103328601D01*
X133017479Y-103219974D01*
X133000026Y-103202521D01*
X132891399Y-103070158D01*
X132877681Y-103049628D01*
X132796971Y-102898629D01*
X132787518Y-102875809D01*
X132737815Y-102711957D01*
X132732998Y-102687737D01*
X132715607Y-102511163D01*
X132715000Y-102498813D01*
X132715000Y-95841001D01*
X141511500Y-95841001D01*
X141511702Y-95843509D01*
X141511702Y-95843514D01*
X141517943Y-95921074D01*
X141526060Y-96021965D01*
X141583963Y-96257706D01*
X141678812Y-96481156D01*
X141808167Y-96686567D01*
X141811512Y-96690361D01*
X141965350Y-96864858D01*
X141965353Y-96864861D01*
X141968698Y-96868655D01*
X141972606Y-96871865D01*
X141972607Y-96871866D01*
X142079242Y-96959456D01*
X142156278Y-97022734D01*
X142366078Y-97144841D01*
X142370801Y-97146654D01*
X142587978Y-97230020D01*
X142587982Y-97230021D01*
X142592702Y-97231833D01*
X142597652Y-97232867D01*
X142597655Y-97232868D01*
X142825369Y-97280440D01*
X142825373Y-97280440D01*
X142830320Y-97281474D01*
X143072817Y-97292486D01*
X143077837Y-97291905D01*
X143077841Y-97291905D01*
X143308929Y-97265167D01*
X143308933Y-97265166D01*
X143313956Y-97264585D01*
X143318820Y-97263209D01*
X143318823Y-97263208D01*
X143542669Y-97199866D01*
X143542668Y-97199866D01*
X143547532Y-97198490D01*
X143552108Y-97196356D01*
X143552114Y-97196354D01*
X143762954Y-97098038D01*
X143762958Y-97098036D01*
X143767536Y-97095901D01*
X143968307Y-96959456D01*
X144144681Y-96792668D01*
X144222901Y-96690361D01*
X144289047Y-96603846D01*
X144289050Y-96603842D01*
X144292120Y-96599826D01*
X144406831Y-96385891D01*
X144485862Y-96156369D01*
X144527179Y-95917164D01*
X144528500Y-95888075D01*
X144528500Y-95841001D01*
X150111500Y-95841001D01*
X150111702Y-95843509D01*
X150111702Y-95843514D01*
X150117943Y-95921074D01*
X150126060Y-96021965D01*
X150183963Y-96257706D01*
X150278812Y-96481156D01*
X150408167Y-96686567D01*
X150411512Y-96690361D01*
X150565350Y-96864858D01*
X150565353Y-96864861D01*
X150568698Y-96868655D01*
X150572606Y-96871865D01*
X150572607Y-96871866D01*
X150679242Y-96959456D01*
X150756278Y-97022734D01*
X150966078Y-97144841D01*
X150970801Y-97146654D01*
X151187978Y-97230020D01*
X151187982Y-97230021D01*
X151192702Y-97231833D01*
X151197652Y-97232867D01*
X151197655Y-97232868D01*
X151425369Y-97280440D01*
X151425373Y-97280440D01*
X151430320Y-97281474D01*
X151672817Y-97292486D01*
X151677837Y-97291905D01*
X151677841Y-97291905D01*
X151908929Y-97265167D01*
X151908933Y-97265166D01*
X151913956Y-97264585D01*
X151918820Y-97263209D01*
X151918823Y-97263208D01*
X152142669Y-97199866D01*
X152142668Y-97199866D01*
X152147532Y-97198490D01*
X152152108Y-97196356D01*
X152152114Y-97196354D01*
X152362954Y-97098038D01*
X152362958Y-97098036D01*
X152367536Y-97095901D01*
X152568307Y-96959456D01*
X152744681Y-96792668D01*
X152822901Y-96690361D01*
X152889047Y-96603846D01*
X152889050Y-96603842D01*
X152892120Y-96599826D01*
X153006831Y-96385891D01*
X153085862Y-96156369D01*
X153127179Y-95917164D01*
X153128500Y-95888075D01*
X153128500Y-94718999D01*
X153128298Y-94716486D01*
X153114346Y-94543076D01*
X153114345Y-94543071D01*
X153113940Y-94538035D01*
X153056037Y-94302294D01*
X152961188Y-94078844D01*
X152831833Y-93873433D01*
X152791633Y-93827834D01*
X152674650Y-93695142D01*
X152674647Y-93695139D01*
X152671302Y-93691345D01*
X152564993Y-93604022D01*
X152487628Y-93540474D01*
X152487625Y-93540472D01*
X152483722Y-93537266D01*
X152273922Y-93415159D01*
X152226868Y-93397097D01*
X152170440Y-93354012D01*
X152146263Y-93287259D01*
X152162014Y-93218031D01*
X152218772Y-93165271D01*
X152362953Y-93098038D01*
X152362952Y-93098038D01*
X152367536Y-93095901D01*
X152568307Y-92959456D01*
X152744681Y-92792668D01*
X152822901Y-92690361D01*
X152889047Y-92603846D01*
X152889050Y-92603842D01*
X152892120Y-92599826D01*
X153006831Y-92385891D01*
X153085862Y-92156369D01*
X153127179Y-91917164D01*
X153128500Y-91888075D01*
X153128500Y-90718999D01*
X153125077Y-90676453D01*
X153114346Y-90543076D01*
X153114345Y-90543071D01*
X153113940Y-90538035D01*
X153095516Y-90463023D01*
X153057244Y-90307208D01*
X153056037Y-90302294D01*
X152985744Y-90136695D01*
X158657251Y-90136695D01*
X158657548Y-90141848D01*
X158657548Y-90141851D01*
X158669812Y-90354547D01*
X158670110Y-90359715D01*
X158671247Y-90364761D01*
X158671248Y-90364767D01*
X158680007Y-90403631D01*
X158719222Y-90577639D01*
X158803266Y-90784616D01*
X158919987Y-90975088D01*
X159066250Y-91143938D01*
X159238126Y-91286632D01*
X159431000Y-91399338D01*
X159639692Y-91479030D01*
X159644760Y-91480061D01*
X159644763Y-91480062D01*
X159752017Y-91501883D01*
X159858597Y-91523567D01*
X159863772Y-91523757D01*
X159863774Y-91523757D01*
X160076673Y-91531564D01*
X160076677Y-91531564D01*
X160081837Y-91531753D01*
X160086957Y-91531097D01*
X160086959Y-91531097D01*
X160298288Y-91504025D01*
X160298289Y-91504025D01*
X160303416Y-91503368D01*
X160308366Y-91501883D01*
X160512429Y-91440661D01*
X160512434Y-91440659D01*
X160517384Y-91439174D01*
X160717994Y-91340896D01*
X160899860Y-91211173D01*
X161058096Y-91053489D01*
X161117594Y-90970689D01*
X161185435Y-90876277D01*
X161188453Y-90872077D01*
X161262864Y-90721518D01*
X161285136Y-90676453D01*
X161285137Y-90676451D01*
X161287430Y-90671811D01*
X161328074Y-90538035D01*
X161350865Y-90463023D01*
X161350865Y-90463021D01*
X161352370Y-90458069D01*
X161381529Y-90236590D01*
X161383156Y-90170000D01*
X161364852Y-89947361D01*
X161310431Y-89730702D01*
X161221354Y-89525840D01*
X161148578Y-89413346D01*
X161102822Y-89342617D01*
X161102820Y-89342614D01*
X161100014Y-89338277D01*
X160949670Y-89173051D01*
X160945619Y-89169852D01*
X160945615Y-89169848D01*
X160778414Y-89037800D01*
X160778410Y-89037798D01*
X160774359Y-89034598D01*
X160733053Y-89011796D01*
X160683084Y-88961364D01*
X160668312Y-88891921D01*
X160693428Y-88825516D01*
X160720780Y-88798909D01*
X160764603Y-88767650D01*
X160899860Y-88671173D01*
X161058096Y-88513489D01*
X161081330Y-88481156D01*
X161185435Y-88336277D01*
X161188453Y-88332077D01*
X161287430Y-88131811D01*
X161352370Y-87918069D01*
X161381529Y-87696590D01*
X161383156Y-87630000D01*
X161364852Y-87407361D01*
X161310431Y-87190702D01*
X161221354Y-86985840D01*
X161100014Y-86798277D01*
X160949670Y-86633051D01*
X160945619Y-86629852D01*
X160945615Y-86629848D01*
X160778414Y-86497800D01*
X160778410Y-86497798D01*
X160774359Y-86494598D01*
X160733053Y-86471796D01*
X160683084Y-86421364D01*
X160668312Y-86351921D01*
X160693428Y-86285516D01*
X160720780Y-86258909D01*
X160764603Y-86227650D01*
X160899860Y-86131173D01*
X161058096Y-85973489D01*
X161070553Y-85956154D01*
X161185435Y-85796277D01*
X161188453Y-85792077D01*
X161198693Y-85771359D01*
X161285136Y-85596453D01*
X161285137Y-85596451D01*
X161287430Y-85591811D01*
X161352370Y-85378069D01*
X161381529Y-85156590D01*
X161383156Y-85090000D01*
X161364852Y-84867361D01*
X161310431Y-84650702D01*
X161221354Y-84445840D01*
X161100014Y-84258277D01*
X160949670Y-84093051D01*
X160945619Y-84089852D01*
X160945615Y-84089848D01*
X160778414Y-83957800D01*
X160778410Y-83957798D01*
X160774359Y-83954598D01*
X160733053Y-83931796D01*
X160683084Y-83881364D01*
X160668312Y-83811921D01*
X160693428Y-83745516D01*
X160720780Y-83718909D01*
X160764603Y-83687650D01*
X160899860Y-83591173D01*
X161058096Y-83433489D01*
X161117594Y-83350689D01*
X161185435Y-83256277D01*
X161188453Y-83252077D01*
X161287430Y-83051811D01*
X161352370Y-82838069D01*
X161381529Y-82616590D01*
X161383156Y-82550000D01*
X161364852Y-82327361D01*
X161310431Y-82110702D01*
X161221354Y-81905840D01*
X161100014Y-81718277D01*
X160949670Y-81553051D01*
X160945619Y-81549852D01*
X160945615Y-81549848D01*
X160778414Y-81417800D01*
X160778410Y-81417798D01*
X160774359Y-81414598D01*
X160733053Y-81391796D01*
X160683084Y-81341364D01*
X160668312Y-81271921D01*
X160693428Y-81205516D01*
X160720780Y-81178909D01*
X160772747Y-81141841D01*
X160899860Y-81051173D01*
X161058096Y-80893489D01*
X161117594Y-80810689D01*
X161185435Y-80716277D01*
X161188453Y-80712077D01*
X161199335Y-80690060D01*
X161285136Y-80516453D01*
X161285137Y-80516451D01*
X161287430Y-80511811D01*
X161352370Y-80298069D01*
X161381529Y-80076590D01*
X161383156Y-80010000D01*
X161364852Y-79787361D01*
X161310431Y-79570702D01*
X161221354Y-79365840D01*
X161100014Y-79178277D01*
X160949670Y-79013051D01*
X160945619Y-79009852D01*
X160945615Y-79009848D01*
X160778414Y-78877800D01*
X160778410Y-78877798D01*
X160774359Y-78874598D01*
X160733053Y-78851796D01*
X160683084Y-78801364D01*
X160668312Y-78731921D01*
X160693428Y-78665516D01*
X160720780Y-78638909D01*
X160764603Y-78607650D01*
X160899860Y-78511173D01*
X161058096Y-78353489D01*
X161117594Y-78270689D01*
X161185435Y-78176277D01*
X161188453Y-78172077D01*
X161234532Y-78078844D01*
X161285136Y-77976453D01*
X161285137Y-77976451D01*
X161287430Y-77971811D01*
X161352370Y-77758069D01*
X161381529Y-77536590D01*
X161383156Y-77470000D01*
X161364852Y-77247361D01*
X161310431Y-77030702D01*
X161221354Y-76825840D01*
X161100014Y-76638277D01*
X160949670Y-76473051D01*
X160945619Y-76469852D01*
X160945615Y-76469848D01*
X160778414Y-76337800D01*
X160778410Y-76337798D01*
X160774359Y-76334598D01*
X160733053Y-76311796D01*
X160683084Y-76261364D01*
X160668312Y-76191921D01*
X160693428Y-76125516D01*
X160720780Y-76098909D01*
X160764603Y-76067650D01*
X160899860Y-75971173D01*
X161058096Y-75813489D01*
X161117594Y-75730689D01*
X161185435Y-75636277D01*
X161188453Y-75632077D01*
X161287430Y-75431811D01*
X161352370Y-75218069D01*
X161381529Y-74996590D01*
X161383156Y-74930000D01*
X161364852Y-74707361D01*
X161310431Y-74490702D01*
X161221354Y-74285840D01*
X161181906Y-74224862D01*
X161102822Y-74102617D01*
X161102820Y-74102614D01*
X161100014Y-74098277D01*
X161086570Y-74083502D01*
X160952798Y-73936488D01*
X160921746Y-73872642D01*
X160930141Y-73802143D01*
X160975317Y-73747375D01*
X161001761Y-73733706D01*
X161108297Y-73693767D01*
X161116705Y-73690615D01*
X161233261Y-73603261D01*
X161320615Y-73486705D01*
X161371745Y-73350316D01*
X161378500Y-73288134D01*
X161378500Y-71491866D01*
X161371745Y-71429684D01*
X161320615Y-71293295D01*
X161233261Y-71176739D01*
X161116705Y-71089385D01*
X160980316Y-71038255D01*
X160918134Y-71031500D01*
X159121866Y-71031500D01*
X159059684Y-71038255D01*
X158923295Y-71089385D01*
X158806739Y-71176739D01*
X158719385Y-71293295D01*
X158668255Y-71429684D01*
X158661500Y-71491866D01*
X158661500Y-73288134D01*
X158668255Y-73350316D01*
X158719385Y-73486705D01*
X158806739Y-73603261D01*
X158923295Y-73690615D01*
X158931704Y-73693767D01*
X158931705Y-73693768D01*
X159040451Y-73734535D01*
X159097216Y-73777176D01*
X159121916Y-73843738D01*
X159106709Y-73913087D01*
X159087316Y-73939568D01*
X158960629Y-74072138D01*
X158834743Y-74256680D01*
X158740688Y-74459305D01*
X158680989Y-74674570D01*
X158657251Y-74896695D01*
X158657548Y-74901848D01*
X158657548Y-74901851D01*
X158663011Y-74996590D01*
X158670110Y-75119715D01*
X158671247Y-75124761D01*
X158671248Y-75124767D01*
X158691119Y-75212939D01*
X158719222Y-75337639D01*
X158803266Y-75544616D01*
X158919987Y-75735088D01*
X159066250Y-75903938D01*
X159238126Y-76046632D01*
X159308595Y-76087811D01*
X159311445Y-76089476D01*
X159360169Y-76141114D01*
X159373240Y-76210897D01*
X159346509Y-76276669D01*
X159306055Y-76310027D01*
X159293607Y-76316507D01*
X159289474Y-76319610D01*
X159289471Y-76319612D01*
X159119100Y-76447530D01*
X159114965Y-76450635D01*
X159111393Y-76454373D01*
X158972395Y-76599826D01*
X158960629Y-76612138D01*
X158834743Y-76796680D01*
X158799843Y-76871866D01*
X158760800Y-76955978D01*
X158740688Y-76999305D01*
X158680989Y-77214570D01*
X158657251Y-77436695D01*
X158657548Y-77441848D01*
X158657548Y-77441851D01*
X158662903Y-77534724D01*
X158670110Y-77659715D01*
X158671247Y-77664761D01*
X158671248Y-77664767D01*
X158691119Y-77752939D01*
X158719222Y-77877639D01*
X158803266Y-78084616D01*
X158805965Y-78089020D01*
X158855374Y-78169648D01*
X158919987Y-78275088D01*
X159066250Y-78443938D01*
X159238126Y-78586632D01*
X159308595Y-78627811D01*
X159311445Y-78629476D01*
X159360169Y-78681114D01*
X159373240Y-78750897D01*
X159346509Y-78816669D01*
X159306055Y-78850027D01*
X159293607Y-78856507D01*
X159289474Y-78859610D01*
X159289471Y-78859612D01*
X159265247Y-78877800D01*
X159114965Y-78990635D01*
X158960629Y-79152138D01*
X158957715Y-79156410D01*
X158957714Y-79156411D01*
X158945404Y-79174457D01*
X158834743Y-79336680D01*
X158740688Y-79539305D01*
X158680989Y-79754570D01*
X158657251Y-79976695D01*
X158657548Y-79981848D01*
X158657548Y-79981851D01*
X158663011Y-80076590D01*
X158670110Y-80199715D01*
X158671247Y-80204761D01*
X158671248Y-80204767D01*
X158683179Y-80257706D01*
X158719222Y-80417639D01*
X158803266Y-80624616D01*
X158853863Y-80707183D01*
X158908381Y-80796148D01*
X158919987Y-80815088D01*
X159066250Y-80983938D01*
X159238126Y-81126632D01*
X159264937Y-81142299D01*
X159311445Y-81169476D01*
X159360169Y-81221114D01*
X159373240Y-81290897D01*
X159346509Y-81356669D01*
X159306055Y-81390027D01*
X159293607Y-81396507D01*
X159289474Y-81399610D01*
X159289471Y-81399612D01*
X159119100Y-81527530D01*
X159114965Y-81530635D01*
X158960629Y-81692138D01*
X158834743Y-81876680D01*
X158819003Y-81910590D01*
X158742891Y-82074560D01*
X158740688Y-82079305D01*
X158680989Y-82294570D01*
X158657251Y-82516695D01*
X158657548Y-82521848D01*
X158657548Y-82521851D01*
X158666201Y-82671925D01*
X158670110Y-82739715D01*
X158671247Y-82744761D01*
X158671248Y-82744767D01*
X158691119Y-82832939D01*
X158719222Y-82957639D01*
X158803266Y-83164616D01*
X158919987Y-83355088D01*
X159066250Y-83523938D01*
X159238126Y-83666632D01*
X159308595Y-83707811D01*
X159311445Y-83709476D01*
X159360169Y-83761114D01*
X159373240Y-83830897D01*
X159346509Y-83896669D01*
X159306055Y-83930027D01*
X159293607Y-83936507D01*
X159289474Y-83939610D01*
X159289471Y-83939612D01*
X159119100Y-84067530D01*
X159114965Y-84070635D01*
X158960629Y-84232138D01*
X158957715Y-84236410D01*
X158957714Y-84236411D01*
X158939838Y-84262617D01*
X158834743Y-84416680D01*
X158819003Y-84450590D01*
X158747864Y-84603846D01*
X158740688Y-84619305D01*
X158680989Y-84834570D01*
X158657251Y-85056695D01*
X158657548Y-85061848D01*
X158657548Y-85061851D01*
X158663011Y-85156590D01*
X158670110Y-85279715D01*
X158671247Y-85284761D01*
X158671248Y-85284767D01*
X158691119Y-85372939D01*
X158719222Y-85497639D01*
X158803266Y-85704616D01*
X158919987Y-85895088D01*
X159066250Y-86063938D01*
X159238126Y-86206632D01*
X159308595Y-86247811D01*
X159311445Y-86249476D01*
X159360169Y-86301114D01*
X159373240Y-86370897D01*
X159346509Y-86436669D01*
X159306055Y-86470027D01*
X159293607Y-86476507D01*
X159289474Y-86479610D01*
X159289471Y-86479612D01*
X159265247Y-86497800D01*
X159114965Y-86610635D01*
X158960629Y-86772138D01*
X158834743Y-86956680D01*
X158740688Y-87159305D01*
X158680989Y-87374570D01*
X158657251Y-87596695D01*
X158657548Y-87601848D01*
X158657548Y-87601851D01*
X158663011Y-87696590D01*
X158670110Y-87819715D01*
X158671247Y-87824761D01*
X158671248Y-87824767D01*
X158692071Y-87917164D01*
X158719222Y-88037639D01*
X158803266Y-88244616D01*
X158919987Y-88435088D01*
X159066250Y-88603938D01*
X159238126Y-88746632D01*
X159308595Y-88787811D01*
X159311445Y-88789476D01*
X159360169Y-88841114D01*
X159373240Y-88910897D01*
X159346509Y-88976669D01*
X159306055Y-89010027D01*
X159293607Y-89016507D01*
X159289474Y-89019610D01*
X159289471Y-89019612D01*
X159120267Y-89146654D01*
X159114965Y-89150635D01*
X158960629Y-89312138D01*
X158834743Y-89496680D01*
X158740688Y-89699305D01*
X158680989Y-89914570D01*
X158657251Y-90136695D01*
X152985744Y-90136695D01*
X152961188Y-90078844D01*
X152875228Y-89942342D01*
X152834528Y-89877712D01*
X152834526Y-89877709D01*
X152831833Y-89873433D01*
X152791633Y-89827834D01*
X152674650Y-89695142D01*
X152674647Y-89695139D01*
X152671302Y-89691345D01*
X152564993Y-89604022D01*
X152487628Y-89540474D01*
X152487625Y-89540472D01*
X152483722Y-89537266D01*
X152273922Y-89415159D01*
X152226868Y-89397097D01*
X152170440Y-89354012D01*
X152146263Y-89287259D01*
X152162014Y-89218031D01*
X152218772Y-89165271D01*
X152362953Y-89098038D01*
X152362952Y-89098038D01*
X152367536Y-89095901D01*
X152568307Y-88959456D01*
X152744681Y-88792668D01*
X152822901Y-88690361D01*
X152889047Y-88603846D01*
X152889050Y-88603842D01*
X152892120Y-88599826D01*
X152936458Y-88517137D01*
X153004439Y-88390352D01*
X153006831Y-88385891D01*
X153085862Y-88156369D01*
X153127179Y-87917164D01*
X153128500Y-87888075D01*
X153128500Y-86718999D01*
X153128298Y-86716486D01*
X153114346Y-86543076D01*
X153114345Y-86543071D01*
X153113940Y-86538035D01*
X153104058Y-86497800D01*
X153057244Y-86307208D01*
X153056037Y-86302294D01*
X152961188Y-86078844D01*
X152831833Y-85873433D01*
X152756019Y-85787438D01*
X152674650Y-85695142D01*
X152674647Y-85695139D01*
X152671302Y-85691345D01*
X152564993Y-85604022D01*
X152487628Y-85540474D01*
X152487625Y-85540472D01*
X152483722Y-85537266D01*
X152273922Y-85415159D01*
X152226868Y-85397097D01*
X152170440Y-85354012D01*
X152146263Y-85287259D01*
X152162014Y-85218031D01*
X152218772Y-85165271D01*
X152362953Y-85098038D01*
X152362952Y-85098038D01*
X152367536Y-85095901D01*
X152568307Y-84959456D01*
X152744681Y-84792668D01*
X152822901Y-84690361D01*
X152889047Y-84603846D01*
X152889050Y-84603842D01*
X152892120Y-84599826D01*
X153006831Y-84385891D01*
X153085862Y-84156369D01*
X153124251Y-83934118D01*
X153126504Y-83921074D01*
X153126505Y-83921068D01*
X153127179Y-83917164D01*
X153128500Y-83888075D01*
X153128500Y-82718999D01*
X153128298Y-82716486D01*
X153114346Y-82543076D01*
X153114345Y-82543071D01*
X153113940Y-82538035D01*
X153108699Y-82516695D01*
X153057244Y-82307208D01*
X153056037Y-82302294D01*
X153052759Y-82294570D01*
X152974711Y-82110702D01*
X152961188Y-82078844D01*
X152849503Y-81901492D01*
X152834528Y-81877712D01*
X152834526Y-81877709D01*
X152831833Y-81873433D01*
X152791633Y-81827834D01*
X152674650Y-81695142D01*
X152674647Y-81695139D01*
X152671302Y-81691345D01*
X152564993Y-81604022D01*
X152487628Y-81540474D01*
X152487625Y-81540472D01*
X152483722Y-81537266D01*
X152273922Y-81415159D01*
X152226868Y-81397097D01*
X152170440Y-81354012D01*
X152146263Y-81287259D01*
X152162014Y-81218031D01*
X152218772Y-81165271D01*
X152362953Y-81098038D01*
X152362952Y-81098038D01*
X152367536Y-81095901D01*
X152568307Y-80959456D01*
X152744681Y-80792668D01*
X152748017Y-80788305D01*
X152889047Y-80603846D01*
X152889050Y-80603842D01*
X152892120Y-80599826D01*
X153006831Y-80385891D01*
X153085862Y-80156369D01*
X153116006Y-79981851D01*
X153126504Y-79921074D01*
X153126505Y-79921068D01*
X153127179Y-79917164D01*
X153128500Y-79888075D01*
X153128500Y-78718999D01*
X153124830Y-78673384D01*
X153114346Y-78543076D01*
X153114345Y-78543071D01*
X153113940Y-78538035D01*
X153108079Y-78514171D01*
X153057244Y-78307208D01*
X153056037Y-78302294D01*
X153042622Y-78270689D01*
X152963165Y-78083502D01*
X152961188Y-78078844D01*
X152837496Y-77882425D01*
X152834528Y-77877712D01*
X152834526Y-77877709D01*
X152831833Y-77873433D01*
X152742140Y-77771695D01*
X152674650Y-77695142D01*
X152674647Y-77695139D01*
X152671302Y-77691345D01*
X152564993Y-77604022D01*
X152487628Y-77540474D01*
X152487625Y-77540472D01*
X152483722Y-77537266D01*
X152354337Y-77461962D01*
X152278290Y-77417701D01*
X152278288Y-77417700D01*
X152273922Y-77415159D01*
X152226868Y-77397097D01*
X152170440Y-77354012D01*
X152146263Y-77287259D01*
X152162014Y-77218031D01*
X152218772Y-77165271D01*
X152362953Y-77098038D01*
X152362952Y-77098038D01*
X152367536Y-77095901D01*
X152568307Y-76959456D01*
X152744681Y-76792668D01*
X152822901Y-76690361D01*
X152889047Y-76603846D01*
X152889050Y-76603842D01*
X152892120Y-76599826D01*
X153006831Y-76385891D01*
X153085862Y-76156369D01*
X153109948Y-76016924D01*
X153126504Y-75921074D01*
X153126505Y-75921068D01*
X153127179Y-75917164D01*
X153128500Y-75888075D01*
X153128500Y-74718999D01*
X153125339Y-74679707D01*
X153114346Y-74543076D01*
X153114345Y-74543071D01*
X153113940Y-74538035D01*
X153095829Y-74464297D01*
X153057244Y-74307208D01*
X153056037Y-74302294D01*
X152961188Y-74078844D01*
X152856805Y-73913087D01*
X152834528Y-73877712D01*
X152834526Y-73877709D01*
X152831833Y-73873433D01*
X152746382Y-73776507D01*
X152674650Y-73695142D01*
X152674647Y-73695139D01*
X152671302Y-73691345D01*
X152564066Y-73603261D01*
X152487628Y-73540474D01*
X152487625Y-73540472D01*
X152483722Y-73537266D01*
X152273922Y-73415159D01*
X152226868Y-73397097D01*
X152170440Y-73354012D01*
X152146263Y-73287259D01*
X152162014Y-73218031D01*
X152218772Y-73165271D01*
X152362953Y-73098038D01*
X152362952Y-73098038D01*
X152367536Y-73095901D01*
X152568307Y-72959456D01*
X152744681Y-72792668D01*
X152822901Y-72690361D01*
X152889047Y-72603846D01*
X152889050Y-72603842D01*
X152892120Y-72599826D01*
X153006831Y-72385891D01*
X153085862Y-72156369D01*
X153127179Y-71917164D01*
X153128500Y-71888075D01*
X153128500Y-70718999D01*
X153128298Y-70716486D01*
X153114346Y-70543076D01*
X153114345Y-70543071D01*
X153113940Y-70538035D01*
X153056037Y-70302294D01*
X152961188Y-70078844D01*
X152831833Y-69873433D01*
X152791633Y-69827834D01*
X152674650Y-69695142D01*
X152674647Y-69695139D01*
X152671302Y-69691345D01*
X152564993Y-69604022D01*
X152487628Y-69540474D01*
X152487625Y-69540472D01*
X152483722Y-69537266D01*
X152273922Y-69415159D01*
X152226868Y-69397097D01*
X152170440Y-69354012D01*
X152146263Y-69287259D01*
X152162014Y-69218031D01*
X152218772Y-69165271D01*
X152362953Y-69098038D01*
X152362952Y-69098038D01*
X152367536Y-69095901D01*
X152568307Y-68959456D01*
X152744681Y-68792668D01*
X152822901Y-68690361D01*
X152889047Y-68603846D01*
X152889050Y-68603842D01*
X152892120Y-68599826D01*
X153006831Y-68385891D01*
X153085862Y-68156369D01*
X153127179Y-67917164D01*
X153128500Y-67888075D01*
X153128500Y-66718999D01*
X153128298Y-66716486D01*
X153114346Y-66543076D01*
X153114345Y-66543071D01*
X153113940Y-66538035D01*
X153056037Y-66302294D01*
X152961188Y-66078844D01*
X152831833Y-65873433D01*
X152791633Y-65827834D01*
X152674650Y-65695142D01*
X152674647Y-65695139D01*
X152671302Y-65691345D01*
X152667393Y-65688134D01*
X152487628Y-65540474D01*
X152487625Y-65540472D01*
X152483722Y-65537266D01*
X152354337Y-65461962D01*
X152278290Y-65417701D01*
X152278288Y-65417700D01*
X152273922Y-65415159D01*
X152139725Y-65363646D01*
X152052022Y-65329980D01*
X152052018Y-65329979D01*
X152047298Y-65328167D01*
X152042348Y-65327133D01*
X152042345Y-65327132D01*
X151814631Y-65279560D01*
X151814627Y-65279560D01*
X151809680Y-65278526D01*
X151567183Y-65267514D01*
X151562163Y-65268095D01*
X151562159Y-65268095D01*
X151331071Y-65294833D01*
X151331067Y-65294834D01*
X151326044Y-65295415D01*
X151321180Y-65296791D01*
X151321177Y-65296792D01*
X151217135Y-65326233D01*
X151092468Y-65361510D01*
X151087892Y-65363644D01*
X151087886Y-65363646D01*
X150877046Y-65461962D01*
X150877042Y-65461964D01*
X150872464Y-65464099D01*
X150671693Y-65600544D01*
X150495319Y-65767332D01*
X150492241Y-65771358D01*
X150492240Y-65771359D01*
X150350953Y-65956154D01*
X150350950Y-65956158D01*
X150347880Y-65960174D01*
X150233169Y-66174109D01*
X150154138Y-66403631D01*
X150112821Y-66642836D01*
X150111500Y-66671925D01*
X150111500Y-67841001D01*
X150111702Y-67843509D01*
X150111702Y-67843514D01*
X150117943Y-67921074D01*
X150126060Y-68021965D01*
X150183963Y-68257706D01*
X150278812Y-68481156D01*
X150408167Y-68686567D01*
X150411512Y-68690361D01*
X150565350Y-68864858D01*
X150565353Y-68864861D01*
X150568698Y-68868655D01*
X150572606Y-68871865D01*
X150572607Y-68871866D01*
X150679242Y-68959456D01*
X150756278Y-69022734D01*
X150760646Y-69025276D01*
X150951027Y-69136081D01*
X150966078Y-69144841D01*
X150970801Y-69146654D01*
X151013132Y-69162903D01*
X151069560Y-69205988D01*
X151093737Y-69272741D01*
X151077986Y-69341969D01*
X151021228Y-69394729D01*
X150971965Y-69417701D01*
X150872464Y-69464099D01*
X150671693Y-69600544D01*
X150495319Y-69767332D01*
X150492241Y-69771358D01*
X150492240Y-69771359D01*
X150350953Y-69956154D01*
X150350950Y-69956158D01*
X150347880Y-69960174D01*
X150233169Y-70174109D01*
X150154138Y-70403631D01*
X150112821Y-70642836D01*
X150111500Y-70671925D01*
X150111500Y-71841001D01*
X150111702Y-71843509D01*
X150111702Y-71843514D01*
X150117943Y-71921074D01*
X150126060Y-72021965D01*
X150183963Y-72257706D01*
X150278812Y-72481156D01*
X150408167Y-72686567D01*
X150411512Y-72690361D01*
X150565350Y-72864858D01*
X150565353Y-72864861D01*
X150568698Y-72868655D01*
X150572606Y-72871865D01*
X150572607Y-72871866D01*
X150679242Y-72959456D01*
X150756278Y-73022734D01*
X150966078Y-73144841D01*
X150970801Y-73146654D01*
X151013132Y-73162903D01*
X151069560Y-73205988D01*
X151093737Y-73272741D01*
X151077986Y-73341969D01*
X151021228Y-73394729D01*
X150971965Y-73417701D01*
X150872464Y-73464099D01*
X150868283Y-73466940D01*
X150868282Y-73466941D01*
X150828627Y-73493891D01*
X150671693Y-73600544D01*
X150495319Y-73767332D01*
X150492241Y-73771358D01*
X150492240Y-73771359D01*
X150350953Y-73956154D01*
X150350950Y-73956158D01*
X150347880Y-73960174D01*
X150233169Y-74174109D01*
X150154138Y-74403631D01*
X150112821Y-74642836D01*
X150111500Y-74671925D01*
X150111500Y-75841001D01*
X150111702Y-75843509D01*
X150111702Y-75843514D01*
X150122215Y-75974171D01*
X150126060Y-76021965D01*
X150127266Y-76026873D01*
X150127266Y-76026876D01*
X150172466Y-76210897D01*
X150183963Y-76257706D01*
X150185938Y-76262358D01*
X150185939Y-76262362D01*
X150215543Y-76332104D01*
X150278812Y-76481156D01*
X150408167Y-76686567D01*
X150411512Y-76690361D01*
X150565350Y-76864858D01*
X150565353Y-76864861D01*
X150568698Y-76868655D01*
X150572606Y-76871865D01*
X150572607Y-76871866D01*
X150727755Y-76999305D01*
X150756278Y-77022734D01*
X150966078Y-77144841D01*
X150970801Y-77146654D01*
X151013132Y-77162903D01*
X151069560Y-77205988D01*
X151093737Y-77272741D01*
X151077986Y-77341969D01*
X151021228Y-77394729D01*
X150942240Y-77431562D01*
X150872464Y-77464099D01*
X150868283Y-77466940D01*
X150868282Y-77466941D01*
X150797408Y-77515107D01*
X150671693Y-77600544D01*
X150495319Y-77767332D01*
X150492241Y-77771358D01*
X150492240Y-77771359D01*
X150350953Y-77956154D01*
X150350950Y-77956158D01*
X150347880Y-77960174D01*
X150345490Y-77964632D01*
X150345489Y-77964633D01*
X150281752Y-78083502D01*
X150233169Y-78174109D01*
X150154138Y-78403631D01*
X150153276Y-78408623D01*
X150115129Y-78629476D01*
X150112821Y-78642836D01*
X150111500Y-78671925D01*
X150111500Y-79841001D01*
X150111702Y-79843509D01*
X150111702Y-79843514D01*
X150125648Y-80016843D01*
X150126060Y-80021965D01*
X150183963Y-80257706D01*
X150185938Y-80262358D01*
X150185939Y-80262362D01*
X150201096Y-80298069D01*
X150278812Y-80481156D01*
X150294997Y-80506857D01*
X150405283Y-80681987D01*
X150408167Y-80686567D01*
X150411512Y-80690361D01*
X150565350Y-80864858D01*
X150565353Y-80864861D01*
X150568698Y-80868655D01*
X150572606Y-80871865D01*
X150572607Y-80871866D01*
X150713067Y-80987240D01*
X150756278Y-81022734D01*
X150760646Y-81025276D01*
X150960924Y-81141841D01*
X150966078Y-81144841D01*
X150970801Y-81146654D01*
X151013132Y-81162903D01*
X151069560Y-81205988D01*
X151093737Y-81272741D01*
X151077986Y-81341969D01*
X151021228Y-81394729D01*
X150893869Y-81454118D01*
X150872464Y-81464099D01*
X150671693Y-81600544D01*
X150495319Y-81767332D01*
X150492241Y-81771358D01*
X150492240Y-81771359D01*
X150350953Y-81956154D01*
X150350950Y-81956158D01*
X150347880Y-81960174D01*
X150233169Y-82174109D01*
X150154138Y-82403631D01*
X150153276Y-82408623D01*
X150129436Y-82546646D01*
X150112821Y-82642836D01*
X150111500Y-82671925D01*
X150111500Y-83841001D01*
X150111702Y-83843509D01*
X150111702Y-83843514D01*
X150120640Y-83954598D01*
X150126060Y-84021965D01*
X150127266Y-84026873D01*
X150127266Y-84026876D01*
X150143520Y-84093051D01*
X150183963Y-84257706D01*
X150185938Y-84262358D01*
X150185939Y-84262362D01*
X150236343Y-84381106D01*
X150278812Y-84481156D01*
X150281510Y-84485440D01*
X150365810Y-84619305D01*
X150408167Y-84686567D01*
X150411512Y-84690361D01*
X150565350Y-84864858D01*
X150565353Y-84864861D01*
X150568698Y-84868655D01*
X150572606Y-84871865D01*
X150572607Y-84871866D01*
X150679242Y-84959456D01*
X150756278Y-85022734D01*
X150966078Y-85144841D01*
X151005330Y-85159908D01*
X151013132Y-85162903D01*
X151069560Y-85205988D01*
X151093737Y-85272741D01*
X151077986Y-85341969D01*
X151021228Y-85394729D01*
X150971965Y-85417701D01*
X150872464Y-85464099D01*
X150671693Y-85600544D01*
X150495319Y-85767332D01*
X150492241Y-85771358D01*
X150492240Y-85771359D01*
X150350953Y-85956154D01*
X150350950Y-85956158D01*
X150347880Y-85960174D01*
X150345490Y-85964632D01*
X150345489Y-85964633D01*
X150294337Y-86060031D01*
X150233169Y-86174109D01*
X150154138Y-86403631D01*
X150112821Y-86642836D01*
X150111500Y-86671925D01*
X150111500Y-87841001D01*
X150111702Y-87843509D01*
X150111702Y-87843514D01*
X150117943Y-87921074D01*
X150126060Y-88021965D01*
X150127266Y-88026873D01*
X150127266Y-88026876D01*
X150154181Y-88136453D01*
X150183963Y-88257706D01*
X150185938Y-88262358D01*
X150185939Y-88262362D01*
X150217314Y-88336277D01*
X150278812Y-88481156D01*
X150281510Y-88485440D01*
X150400361Y-88674171D01*
X150408167Y-88686567D01*
X150411512Y-88690361D01*
X150565350Y-88864858D01*
X150565353Y-88864861D01*
X150568698Y-88868655D01*
X150572606Y-88871865D01*
X150572607Y-88871866D01*
X150745789Y-89014118D01*
X150756278Y-89022734D01*
X150966078Y-89144841D01*
X150970801Y-89146654D01*
X151013132Y-89162903D01*
X151069560Y-89205988D01*
X151093737Y-89272741D01*
X151077986Y-89341969D01*
X151021228Y-89394729D01*
X150971965Y-89417701D01*
X150872464Y-89464099D01*
X150868283Y-89466940D01*
X150868282Y-89466941D01*
X150797408Y-89515107D01*
X150671693Y-89600544D01*
X150495319Y-89767332D01*
X150492241Y-89771358D01*
X150492240Y-89771359D01*
X150350953Y-89956154D01*
X150350950Y-89956158D01*
X150347880Y-89960174D01*
X150233169Y-90174109D01*
X150154138Y-90403631D01*
X150136978Y-90502978D01*
X150123256Y-90582425D01*
X150112821Y-90642836D01*
X150111500Y-90671925D01*
X150111500Y-91841001D01*
X150111702Y-91843509D01*
X150111702Y-91843514D01*
X150117943Y-91921074D01*
X150126060Y-92021965D01*
X150183963Y-92257706D01*
X150278812Y-92481156D01*
X150408167Y-92686567D01*
X150411512Y-92690361D01*
X150565350Y-92864858D01*
X150565353Y-92864861D01*
X150568698Y-92868655D01*
X150572606Y-92871865D01*
X150572607Y-92871866D01*
X150679242Y-92959456D01*
X150756278Y-93022734D01*
X150966078Y-93144841D01*
X150970801Y-93146654D01*
X151013132Y-93162903D01*
X151069560Y-93205988D01*
X151093737Y-93272741D01*
X151077986Y-93341969D01*
X151021228Y-93394729D01*
X150971965Y-93417701D01*
X150872464Y-93464099D01*
X150671693Y-93600544D01*
X150495319Y-93767332D01*
X150492241Y-93771358D01*
X150492240Y-93771359D01*
X150350953Y-93956154D01*
X150350950Y-93956158D01*
X150347880Y-93960174D01*
X150233169Y-94174109D01*
X150154138Y-94403631D01*
X150112821Y-94642836D01*
X150111500Y-94671925D01*
X150111500Y-95841001D01*
X144528500Y-95841001D01*
X144528500Y-94718999D01*
X144528298Y-94716486D01*
X144514346Y-94543076D01*
X144514345Y-94543071D01*
X144513940Y-94538035D01*
X144456037Y-94302294D01*
X144361188Y-94078844D01*
X144231833Y-93873433D01*
X144191633Y-93827834D01*
X144074650Y-93695142D01*
X144074647Y-93695139D01*
X144071302Y-93691345D01*
X143964993Y-93604022D01*
X143887628Y-93540474D01*
X143887625Y-93540472D01*
X143883722Y-93537266D01*
X143673922Y-93415159D01*
X143626868Y-93397097D01*
X143570440Y-93354012D01*
X143546263Y-93287259D01*
X143562014Y-93218031D01*
X143618772Y-93165271D01*
X143762953Y-93098038D01*
X143762952Y-93098038D01*
X143767536Y-93095901D01*
X143968307Y-92959456D01*
X144144681Y-92792668D01*
X144222901Y-92690361D01*
X144289047Y-92603846D01*
X144289050Y-92603842D01*
X144292120Y-92599826D01*
X144406831Y-92385891D01*
X144485862Y-92156369D01*
X144527179Y-91917164D01*
X144528500Y-91888075D01*
X144528500Y-90718999D01*
X144525077Y-90676453D01*
X144514346Y-90543076D01*
X144514345Y-90543071D01*
X144513940Y-90538035D01*
X144495516Y-90463023D01*
X144457244Y-90307208D01*
X144456037Y-90302294D01*
X144361188Y-90078844D01*
X144275228Y-89942342D01*
X144234528Y-89877712D01*
X144234526Y-89877709D01*
X144231833Y-89873433D01*
X144191633Y-89827834D01*
X144074650Y-89695142D01*
X144074647Y-89695139D01*
X144071302Y-89691345D01*
X143964993Y-89604022D01*
X143887628Y-89540474D01*
X143887625Y-89540472D01*
X143883722Y-89537266D01*
X143673922Y-89415159D01*
X143626868Y-89397097D01*
X143570440Y-89354012D01*
X143546263Y-89287259D01*
X143562014Y-89218031D01*
X143618772Y-89165271D01*
X143762953Y-89098038D01*
X143762952Y-89098038D01*
X143767536Y-89095901D01*
X143968307Y-88959456D01*
X144144681Y-88792668D01*
X144222901Y-88690361D01*
X144289047Y-88603846D01*
X144289050Y-88603842D01*
X144292120Y-88599826D01*
X144336458Y-88517137D01*
X144404439Y-88390352D01*
X144406831Y-88385891D01*
X144485862Y-88156369D01*
X144527179Y-87917164D01*
X144528500Y-87888075D01*
X144528500Y-86718999D01*
X144528298Y-86716486D01*
X144514346Y-86543076D01*
X144514345Y-86543071D01*
X144513940Y-86538035D01*
X144504058Y-86497800D01*
X144457244Y-86307208D01*
X144456037Y-86302294D01*
X144361188Y-86078844D01*
X144231833Y-85873433D01*
X144156019Y-85787438D01*
X144074650Y-85695142D01*
X144074647Y-85695139D01*
X144071302Y-85691345D01*
X143964993Y-85604022D01*
X143887628Y-85540474D01*
X143887625Y-85540472D01*
X143883722Y-85537266D01*
X143673922Y-85415159D01*
X143626868Y-85397097D01*
X143570440Y-85354012D01*
X143546263Y-85287259D01*
X143562014Y-85218031D01*
X143618772Y-85165271D01*
X143762953Y-85098038D01*
X143762952Y-85098038D01*
X143767536Y-85095901D01*
X143968307Y-84959456D01*
X144144681Y-84792668D01*
X144222901Y-84690361D01*
X144289047Y-84603846D01*
X144289050Y-84603842D01*
X144292120Y-84599826D01*
X144406831Y-84385891D01*
X144485862Y-84156369D01*
X144524251Y-83934118D01*
X144526504Y-83921074D01*
X144526505Y-83921068D01*
X144527179Y-83917164D01*
X144528500Y-83888075D01*
X144528500Y-82718999D01*
X144528298Y-82716486D01*
X144514346Y-82543076D01*
X144514345Y-82543071D01*
X144513940Y-82538035D01*
X144508699Y-82516695D01*
X144457244Y-82307208D01*
X144456037Y-82302294D01*
X144452759Y-82294570D01*
X144374711Y-82110702D01*
X144361188Y-82078844D01*
X144249503Y-81901492D01*
X144234528Y-81877712D01*
X144234526Y-81877709D01*
X144231833Y-81873433D01*
X144191633Y-81827834D01*
X144074650Y-81695142D01*
X144074647Y-81695139D01*
X144071302Y-81691345D01*
X143964993Y-81604022D01*
X143887628Y-81540474D01*
X143887625Y-81540472D01*
X143883722Y-81537266D01*
X143673922Y-81415159D01*
X143626217Y-81396847D01*
X143569789Y-81353761D01*
X143545613Y-81287008D01*
X143561364Y-81217780D01*
X143618122Y-81165021D01*
X143762706Y-81097601D01*
X143771471Y-81092622D01*
X143963802Y-80961913D01*
X143971677Y-80955581D01*
X144140626Y-80795814D01*
X144147387Y-80788305D01*
X144288625Y-80603574D01*
X144294089Y-80595095D01*
X144403978Y-80390153D01*
X144408020Y-80380901D01*
X144483727Y-80161029D01*
X144486236Y-80151257D01*
X144526004Y-79921029D01*
X144526859Y-79913157D01*
X144527936Y-79889449D01*
X144528000Y-79886616D01*
X144528000Y-79552115D01*
X144523525Y-79536876D01*
X144522135Y-79535671D01*
X144514452Y-79534000D01*
X141530115Y-79534000D01*
X141514876Y-79538475D01*
X141513671Y-79539865D01*
X141512000Y-79547548D01*
X141512000Y-79838456D01*
X141512202Y-79843488D01*
X141526150Y-80016843D01*
X141527762Y-80026796D01*
X141583233Y-80252633D01*
X141586416Y-80262203D01*
X141677280Y-80476265D01*
X141681955Y-80485207D01*
X141805874Y-80681987D01*
X141811914Y-80690060D01*
X141965703Y-80864500D01*
X141972956Y-80871504D01*
X142152654Y-81019110D01*
X142160936Y-81024866D01*
X142361919Y-81141841D01*
X142371024Y-81146203D01*
X142413763Y-81162609D01*
X142470191Y-81205694D01*
X142494368Y-81272448D01*
X142478617Y-81341675D01*
X142421859Y-81394435D01*
X142277046Y-81461962D01*
X142277042Y-81461964D01*
X142272464Y-81464099D01*
X142071693Y-81600544D01*
X141895319Y-81767332D01*
X141892241Y-81771358D01*
X141892240Y-81771359D01*
X141750953Y-81956154D01*
X141750950Y-81956158D01*
X141747880Y-81960174D01*
X141633169Y-82174109D01*
X141554138Y-82403631D01*
X141553276Y-82408623D01*
X141529436Y-82546646D01*
X141512821Y-82642836D01*
X141511500Y-82671925D01*
X141511500Y-83841001D01*
X141511702Y-83843509D01*
X141511702Y-83843514D01*
X141520640Y-83954598D01*
X141526060Y-84021965D01*
X141527266Y-84026873D01*
X141527266Y-84026876D01*
X141543520Y-84093051D01*
X141583963Y-84257706D01*
X141585938Y-84262358D01*
X141585939Y-84262362D01*
X141636343Y-84381106D01*
X141678812Y-84481156D01*
X141681510Y-84485440D01*
X141765810Y-84619305D01*
X141808167Y-84686567D01*
X141811512Y-84690361D01*
X141965350Y-84864858D01*
X141965353Y-84864861D01*
X141968698Y-84868655D01*
X141972606Y-84871865D01*
X141972607Y-84871866D01*
X142079242Y-84959456D01*
X142156278Y-85022734D01*
X142366078Y-85144841D01*
X142405330Y-85159908D01*
X142413132Y-85162903D01*
X142469560Y-85205988D01*
X142493737Y-85272741D01*
X142477986Y-85341969D01*
X142421228Y-85394729D01*
X142371965Y-85417701D01*
X142272464Y-85464099D01*
X142071693Y-85600544D01*
X141895319Y-85767332D01*
X141892241Y-85771358D01*
X141892240Y-85771359D01*
X141750953Y-85956154D01*
X141750950Y-85956158D01*
X141747880Y-85960174D01*
X141745490Y-85964632D01*
X141745489Y-85964633D01*
X141694337Y-86060031D01*
X141633169Y-86174109D01*
X141554138Y-86403631D01*
X141512821Y-86642836D01*
X141511500Y-86671925D01*
X141511500Y-87841001D01*
X141511702Y-87843509D01*
X141511702Y-87843514D01*
X141517943Y-87921074D01*
X141526060Y-88021965D01*
X141527266Y-88026873D01*
X141527266Y-88026876D01*
X141554181Y-88136453D01*
X141583963Y-88257706D01*
X141585938Y-88262358D01*
X141585939Y-88262362D01*
X141617314Y-88336277D01*
X141678812Y-88481156D01*
X141681510Y-88485440D01*
X141800361Y-88674171D01*
X141808167Y-88686567D01*
X141811512Y-88690361D01*
X141965350Y-88864858D01*
X141965353Y-88864861D01*
X141968698Y-88868655D01*
X141972606Y-88871865D01*
X141972607Y-88871866D01*
X142145789Y-89014118D01*
X142156278Y-89022734D01*
X142366078Y-89144841D01*
X142370801Y-89146654D01*
X142413132Y-89162903D01*
X142469560Y-89205988D01*
X142493737Y-89272741D01*
X142477986Y-89341969D01*
X142421228Y-89394729D01*
X142371965Y-89417701D01*
X142272464Y-89464099D01*
X142268283Y-89466940D01*
X142268282Y-89466941D01*
X142197408Y-89515107D01*
X142071693Y-89600544D01*
X141895319Y-89767332D01*
X141892241Y-89771358D01*
X141892240Y-89771359D01*
X141750953Y-89956154D01*
X141750950Y-89956158D01*
X141747880Y-89960174D01*
X141633169Y-90174109D01*
X141554138Y-90403631D01*
X141536978Y-90502978D01*
X141523256Y-90582425D01*
X141512821Y-90642836D01*
X141511500Y-90671925D01*
X141511500Y-91841001D01*
X141511702Y-91843509D01*
X141511702Y-91843514D01*
X141517943Y-91921074D01*
X141526060Y-92021965D01*
X141583963Y-92257706D01*
X141678812Y-92481156D01*
X141808167Y-92686567D01*
X141811512Y-92690361D01*
X141965350Y-92864858D01*
X141965353Y-92864861D01*
X141968698Y-92868655D01*
X141972606Y-92871865D01*
X141972607Y-92871866D01*
X142079242Y-92959456D01*
X142156278Y-93022734D01*
X142366078Y-93144841D01*
X142370801Y-93146654D01*
X142413132Y-93162903D01*
X142469560Y-93205988D01*
X142493737Y-93272741D01*
X142477986Y-93341969D01*
X142421228Y-93394729D01*
X142371965Y-93417701D01*
X142272464Y-93464099D01*
X142071693Y-93600544D01*
X141895319Y-93767332D01*
X141892241Y-93771358D01*
X141892240Y-93771359D01*
X141750953Y-93956154D01*
X141750950Y-93956158D01*
X141747880Y-93960174D01*
X141633169Y-94174109D01*
X141554138Y-94403631D01*
X141512821Y-94642836D01*
X141511500Y-94671925D01*
X141511500Y-95841001D01*
X132715000Y-95841001D01*
X132715000Y-90136695D01*
X133257251Y-90136695D01*
X133257548Y-90141848D01*
X133257548Y-90141851D01*
X133269812Y-90354547D01*
X133270110Y-90359715D01*
X133271247Y-90364761D01*
X133271248Y-90364767D01*
X133280007Y-90403631D01*
X133319222Y-90577639D01*
X133403266Y-90784616D01*
X133519987Y-90975088D01*
X133666250Y-91143938D01*
X133838126Y-91286632D01*
X134031000Y-91399338D01*
X134239692Y-91479030D01*
X134244760Y-91480061D01*
X134244763Y-91480062D01*
X134352017Y-91501883D01*
X134458597Y-91523567D01*
X134463772Y-91523757D01*
X134463774Y-91523757D01*
X134676673Y-91531564D01*
X134676677Y-91531564D01*
X134681837Y-91531753D01*
X134686957Y-91531097D01*
X134686959Y-91531097D01*
X134898288Y-91504025D01*
X134898289Y-91504025D01*
X134903416Y-91503368D01*
X134908366Y-91501883D01*
X135112429Y-91440661D01*
X135112434Y-91440659D01*
X135117384Y-91439174D01*
X135317994Y-91340896D01*
X135499860Y-91211173D01*
X135658096Y-91053489D01*
X135717594Y-90970689D01*
X135785435Y-90876277D01*
X135788453Y-90872077D01*
X135862864Y-90721518D01*
X135885136Y-90676453D01*
X135885137Y-90676451D01*
X135887430Y-90671811D01*
X135928074Y-90538035D01*
X135950865Y-90463023D01*
X135950865Y-90463021D01*
X135952370Y-90458069D01*
X135981529Y-90236590D01*
X135983156Y-90170000D01*
X135964852Y-89947361D01*
X135910431Y-89730702D01*
X135821354Y-89525840D01*
X135748578Y-89413346D01*
X135702822Y-89342617D01*
X135702820Y-89342614D01*
X135700014Y-89338277D01*
X135549670Y-89173051D01*
X135545619Y-89169852D01*
X135545615Y-89169848D01*
X135378414Y-89037800D01*
X135378410Y-89037798D01*
X135374359Y-89034598D01*
X135333053Y-89011796D01*
X135283084Y-88961364D01*
X135268312Y-88891921D01*
X135293428Y-88825516D01*
X135320780Y-88798909D01*
X135364603Y-88767650D01*
X135499860Y-88671173D01*
X135658096Y-88513489D01*
X135681330Y-88481156D01*
X135785435Y-88336277D01*
X135788453Y-88332077D01*
X135887430Y-88131811D01*
X135952370Y-87918069D01*
X135981529Y-87696590D01*
X135983156Y-87630000D01*
X135964852Y-87407361D01*
X135910431Y-87190702D01*
X135821354Y-86985840D01*
X135700014Y-86798277D01*
X135549670Y-86633051D01*
X135545619Y-86629852D01*
X135545615Y-86629848D01*
X135378414Y-86497800D01*
X135378410Y-86497798D01*
X135374359Y-86494598D01*
X135333053Y-86471796D01*
X135283084Y-86421364D01*
X135268312Y-86351921D01*
X135293428Y-86285516D01*
X135320780Y-86258909D01*
X135364603Y-86227650D01*
X135499860Y-86131173D01*
X135658096Y-85973489D01*
X135670553Y-85956154D01*
X135785435Y-85796277D01*
X135788453Y-85792077D01*
X135798693Y-85771359D01*
X135885136Y-85596453D01*
X135885137Y-85596451D01*
X135887430Y-85591811D01*
X135952370Y-85378069D01*
X135981529Y-85156590D01*
X135983156Y-85090000D01*
X135964852Y-84867361D01*
X135910431Y-84650702D01*
X135821354Y-84445840D01*
X135700014Y-84258277D01*
X135549670Y-84093051D01*
X135545619Y-84089852D01*
X135545615Y-84089848D01*
X135378414Y-83957800D01*
X135378410Y-83957798D01*
X135374359Y-83954598D01*
X135333053Y-83931796D01*
X135283084Y-83881364D01*
X135268312Y-83811921D01*
X135293428Y-83745516D01*
X135320780Y-83718909D01*
X135364603Y-83687650D01*
X135499860Y-83591173D01*
X135658096Y-83433489D01*
X135717594Y-83350689D01*
X135785435Y-83256277D01*
X135788453Y-83252077D01*
X135887430Y-83051811D01*
X135952370Y-82838069D01*
X135981529Y-82616590D01*
X135983156Y-82550000D01*
X135964852Y-82327361D01*
X135910431Y-82110702D01*
X135821354Y-81905840D01*
X135700014Y-81718277D01*
X135549670Y-81553051D01*
X135545619Y-81549852D01*
X135545615Y-81549848D01*
X135378414Y-81417800D01*
X135378410Y-81417798D01*
X135374359Y-81414598D01*
X135332569Y-81391529D01*
X135282598Y-81341097D01*
X135267826Y-81271654D01*
X135292942Y-81205248D01*
X135320294Y-81178641D01*
X135495328Y-81053792D01*
X135503200Y-81047139D01*
X135654052Y-80896812D01*
X135660730Y-80888965D01*
X135785003Y-80716020D01*
X135790313Y-80707183D01*
X135884670Y-80516267D01*
X135888469Y-80506672D01*
X135950377Y-80302910D01*
X135952555Y-80292837D01*
X135953986Y-80281962D01*
X135951775Y-80267778D01*
X135938617Y-80264000D01*
X133303225Y-80264000D01*
X133289694Y-80267973D01*
X133288257Y-80277966D01*
X133318565Y-80412446D01*
X133321645Y-80422275D01*
X133401770Y-80619603D01*
X133406413Y-80628794D01*
X133517694Y-80810388D01*
X133523777Y-80818699D01*
X133663213Y-80979667D01*
X133670580Y-80986883D01*
X133834434Y-81122916D01*
X133842881Y-81128831D01*
X133911969Y-81169203D01*
X133960693Y-81220842D01*
X133973764Y-81290625D01*
X133947033Y-81356396D01*
X133906584Y-81389752D01*
X133893607Y-81396507D01*
X133889474Y-81399610D01*
X133889471Y-81399612D01*
X133719100Y-81527530D01*
X133714965Y-81530635D01*
X133560629Y-81692138D01*
X133434743Y-81876680D01*
X133419003Y-81910590D01*
X133342891Y-82074560D01*
X133340688Y-82079305D01*
X133280989Y-82294570D01*
X133257251Y-82516695D01*
X133257548Y-82521848D01*
X133257548Y-82521851D01*
X133266201Y-82671925D01*
X133270110Y-82739715D01*
X133271247Y-82744761D01*
X133271248Y-82744767D01*
X133291119Y-82832939D01*
X133319222Y-82957639D01*
X133403266Y-83164616D01*
X133519987Y-83355088D01*
X133666250Y-83523938D01*
X133838126Y-83666632D01*
X133908595Y-83707811D01*
X133911445Y-83709476D01*
X133960169Y-83761114D01*
X133973240Y-83830897D01*
X133946509Y-83896669D01*
X133906055Y-83930027D01*
X133893607Y-83936507D01*
X133889474Y-83939610D01*
X133889471Y-83939612D01*
X133719100Y-84067530D01*
X133714965Y-84070635D01*
X133560629Y-84232138D01*
X133557715Y-84236410D01*
X133557714Y-84236411D01*
X133539838Y-84262617D01*
X133434743Y-84416680D01*
X133419003Y-84450590D01*
X133347864Y-84603846D01*
X133340688Y-84619305D01*
X133280989Y-84834570D01*
X133257251Y-85056695D01*
X133257548Y-85061848D01*
X133257548Y-85061851D01*
X133263011Y-85156590D01*
X133270110Y-85279715D01*
X133271247Y-85284761D01*
X133271248Y-85284767D01*
X133291119Y-85372939D01*
X133319222Y-85497639D01*
X133403266Y-85704616D01*
X133519987Y-85895088D01*
X133666250Y-86063938D01*
X133838126Y-86206632D01*
X133908595Y-86247811D01*
X133911445Y-86249476D01*
X133960169Y-86301114D01*
X133973240Y-86370897D01*
X133946509Y-86436669D01*
X133906055Y-86470027D01*
X133893607Y-86476507D01*
X133889474Y-86479610D01*
X133889471Y-86479612D01*
X133865247Y-86497800D01*
X133714965Y-86610635D01*
X133560629Y-86772138D01*
X133434743Y-86956680D01*
X133340688Y-87159305D01*
X133280989Y-87374570D01*
X133257251Y-87596695D01*
X133257548Y-87601848D01*
X133257548Y-87601851D01*
X133263011Y-87696590D01*
X133270110Y-87819715D01*
X133271247Y-87824761D01*
X133271248Y-87824767D01*
X133292071Y-87917164D01*
X133319222Y-88037639D01*
X133403266Y-88244616D01*
X133519987Y-88435088D01*
X133666250Y-88603938D01*
X133838126Y-88746632D01*
X133908595Y-88787811D01*
X133911445Y-88789476D01*
X133960169Y-88841114D01*
X133973240Y-88910897D01*
X133946509Y-88976669D01*
X133906055Y-89010027D01*
X133893607Y-89016507D01*
X133889474Y-89019610D01*
X133889471Y-89019612D01*
X133720267Y-89146654D01*
X133714965Y-89150635D01*
X133560629Y-89312138D01*
X133434743Y-89496680D01*
X133340688Y-89699305D01*
X133280989Y-89914570D01*
X133257251Y-90136695D01*
X132715000Y-90136695D01*
X132715000Y-77436695D01*
X133257251Y-77436695D01*
X133257548Y-77441848D01*
X133257548Y-77441851D01*
X133262903Y-77534724D01*
X133270110Y-77659715D01*
X133271247Y-77664761D01*
X133271248Y-77664767D01*
X133291119Y-77752939D01*
X133319222Y-77877639D01*
X133403266Y-78084616D01*
X133405965Y-78089020D01*
X133455374Y-78169648D01*
X133519987Y-78275088D01*
X133666250Y-78443938D01*
X133838126Y-78586632D01*
X133911445Y-78629476D01*
X133911955Y-78629774D01*
X133960679Y-78681412D01*
X133973750Y-78751195D01*
X133947019Y-78816967D01*
X133906562Y-78850327D01*
X133898457Y-78854546D01*
X133889738Y-78860036D01*
X133719433Y-78987905D01*
X133711726Y-78994748D01*
X133564590Y-79148717D01*
X133558104Y-79156727D01*
X133438098Y-79332649D01*
X133433000Y-79341623D01*
X133343338Y-79534783D01*
X133339775Y-79544470D01*
X133284389Y-79744183D01*
X133285912Y-79752607D01*
X133298292Y-79756000D01*
X135938344Y-79756000D01*
X135951875Y-79752027D01*
X135953180Y-79742947D01*
X135911214Y-79575875D01*
X135907894Y-79566124D01*
X135822972Y-79370814D01*
X135818105Y-79361739D01*
X135702426Y-79182926D01*
X135696136Y-79174757D01*
X135552806Y-79017240D01*
X135545273Y-79010215D01*
X135378139Y-78878222D01*
X135369556Y-78872520D01*
X135332602Y-78852120D01*
X135282631Y-78801687D01*
X135267859Y-78732245D01*
X135292975Y-78665839D01*
X135320327Y-78639232D01*
X135343797Y-78622491D01*
X135499860Y-78511173D01*
X135658096Y-78353489D01*
X135717594Y-78270689D01*
X135785435Y-78176277D01*
X135788453Y-78172077D01*
X135834532Y-78078844D01*
X135885136Y-77976453D01*
X135885137Y-77976451D01*
X135887430Y-77971811D01*
X135952370Y-77758069D01*
X135981529Y-77536590D01*
X135983156Y-77470000D01*
X135964852Y-77247361D01*
X135910431Y-77030702D01*
X135821354Y-76825840D01*
X135700014Y-76638277D01*
X135549670Y-76473051D01*
X135545619Y-76469852D01*
X135545615Y-76469848D01*
X135378414Y-76337800D01*
X135378410Y-76337798D01*
X135374359Y-76334598D01*
X135333053Y-76311796D01*
X135283084Y-76261364D01*
X135268312Y-76191921D01*
X135293428Y-76125516D01*
X135320780Y-76098909D01*
X135364603Y-76067650D01*
X135499860Y-75971173D01*
X135630488Y-75841001D01*
X141511500Y-75841001D01*
X141511702Y-75843509D01*
X141511702Y-75843514D01*
X141522215Y-75974171D01*
X141526060Y-76021965D01*
X141527266Y-76026873D01*
X141527266Y-76026876D01*
X141572466Y-76210897D01*
X141583963Y-76257706D01*
X141585938Y-76262358D01*
X141585939Y-76262362D01*
X141615543Y-76332104D01*
X141678812Y-76481156D01*
X141808167Y-76686567D01*
X141811512Y-76690361D01*
X141965350Y-76864858D01*
X141965353Y-76864861D01*
X141968698Y-76868655D01*
X141972606Y-76871865D01*
X141972607Y-76871866D01*
X142127755Y-76999305D01*
X142156278Y-77022734D01*
X142366078Y-77144841D01*
X142413132Y-77162903D01*
X142413783Y-77163153D01*
X142470211Y-77206239D01*
X142494387Y-77272992D01*
X142478636Y-77342220D01*
X142421878Y-77394979D01*
X142277294Y-77462399D01*
X142268529Y-77467378D01*
X142076198Y-77598087D01*
X142068323Y-77604419D01*
X141899374Y-77764186D01*
X141892613Y-77771695D01*
X141751375Y-77956426D01*
X141745911Y-77964905D01*
X141636022Y-78169847D01*
X141631980Y-78179099D01*
X141556273Y-78398971D01*
X141553764Y-78408743D01*
X141513996Y-78638971D01*
X141513141Y-78646843D01*
X141512064Y-78670551D01*
X141512000Y-78673384D01*
X141512000Y-79007885D01*
X141516475Y-79023124D01*
X141517865Y-79024329D01*
X141525548Y-79026000D01*
X144509885Y-79026000D01*
X144525124Y-79021525D01*
X144526329Y-79020135D01*
X144528000Y-79012452D01*
X144528000Y-78721544D01*
X144527798Y-78716512D01*
X144513850Y-78543157D01*
X144512238Y-78533204D01*
X144456767Y-78307367D01*
X144453584Y-78297797D01*
X144362720Y-78083735D01*
X144358045Y-78074793D01*
X144234126Y-77878013D01*
X144228086Y-77869940D01*
X144074297Y-77695500D01*
X144067044Y-77688496D01*
X143887346Y-77540890D01*
X143879064Y-77535134D01*
X143678081Y-77418159D01*
X143668976Y-77413797D01*
X143626237Y-77397391D01*
X143569809Y-77354306D01*
X143545632Y-77287552D01*
X143561383Y-77218325D01*
X143618141Y-77165565D01*
X143762954Y-77098038D01*
X143762958Y-77098036D01*
X143767536Y-77095901D01*
X143968307Y-76959456D01*
X144144681Y-76792668D01*
X144222901Y-76690361D01*
X144289047Y-76603846D01*
X144289050Y-76603842D01*
X144292120Y-76599826D01*
X144406831Y-76385891D01*
X144485862Y-76156369D01*
X144509948Y-76016924D01*
X144526504Y-75921074D01*
X144526505Y-75921068D01*
X144527179Y-75917164D01*
X144528500Y-75888075D01*
X144528500Y-74718999D01*
X144525339Y-74679707D01*
X144514346Y-74543076D01*
X144514345Y-74543071D01*
X144513940Y-74538035D01*
X144495829Y-74464297D01*
X144457244Y-74307208D01*
X144456037Y-74302294D01*
X144361188Y-74078844D01*
X144256805Y-73913087D01*
X144234528Y-73877712D01*
X144234526Y-73877709D01*
X144231833Y-73873433D01*
X144146382Y-73776507D01*
X144074650Y-73695142D01*
X144074647Y-73695139D01*
X144071302Y-73691345D01*
X143964066Y-73603261D01*
X143887628Y-73540474D01*
X143887625Y-73540472D01*
X143883722Y-73537266D01*
X143673922Y-73415159D01*
X143626868Y-73397097D01*
X143570440Y-73354012D01*
X143546263Y-73287259D01*
X143562014Y-73218031D01*
X143618772Y-73165271D01*
X143762953Y-73098038D01*
X143762952Y-73098038D01*
X143767536Y-73095901D01*
X143968307Y-72959456D01*
X144144681Y-72792668D01*
X144222901Y-72690361D01*
X144289047Y-72603846D01*
X144289050Y-72603842D01*
X144292120Y-72599826D01*
X144406831Y-72385891D01*
X144485862Y-72156369D01*
X144527179Y-71917164D01*
X144528500Y-71888075D01*
X144528500Y-70718999D01*
X144528298Y-70716486D01*
X144514346Y-70543076D01*
X144514345Y-70543071D01*
X144513940Y-70538035D01*
X144456037Y-70302294D01*
X144361188Y-70078844D01*
X144231833Y-69873433D01*
X144191633Y-69827834D01*
X144074650Y-69695142D01*
X144074647Y-69695139D01*
X144071302Y-69691345D01*
X143964993Y-69604022D01*
X143887628Y-69540474D01*
X143887625Y-69540472D01*
X143883722Y-69537266D01*
X143874433Y-69531860D01*
X143859897Y-69523399D01*
X143811083Y-69471845D01*
X143797890Y-69402085D01*
X143824507Y-69336267D01*
X143882482Y-69295287D01*
X143923277Y-69288500D01*
X144068134Y-69288500D01*
X144130316Y-69281745D01*
X144266705Y-69230615D01*
X144383261Y-69143261D01*
X144470615Y-69026705D01*
X144521745Y-68890316D01*
X144528500Y-68828134D01*
X144528500Y-65731866D01*
X144521745Y-65669684D01*
X144470615Y-65533295D01*
X144383261Y-65416739D01*
X144266705Y-65329385D01*
X144130316Y-65278255D01*
X144068134Y-65271500D01*
X141971866Y-65271500D01*
X141909684Y-65278255D01*
X141773295Y-65329385D01*
X141656739Y-65416739D01*
X141569385Y-65533295D01*
X141518255Y-65669684D01*
X141511500Y-65731866D01*
X141511500Y-68828134D01*
X141518255Y-68890316D01*
X141569385Y-69026705D01*
X141656739Y-69143261D01*
X141773295Y-69230615D01*
X141909684Y-69281745D01*
X141971866Y-69288500D01*
X142121281Y-69288500D01*
X142189402Y-69308502D01*
X142235895Y-69362158D01*
X142245999Y-69432432D01*
X142216505Y-69497012D01*
X142192104Y-69518712D01*
X142071693Y-69600544D01*
X141895319Y-69767332D01*
X141892241Y-69771358D01*
X141892240Y-69771359D01*
X141750953Y-69956154D01*
X141750950Y-69956158D01*
X141747880Y-69960174D01*
X141633169Y-70174109D01*
X141554138Y-70403631D01*
X141512821Y-70642836D01*
X141511500Y-70671925D01*
X141511500Y-71841001D01*
X141511702Y-71843509D01*
X141511702Y-71843514D01*
X141517943Y-71921074D01*
X141526060Y-72021965D01*
X141583963Y-72257706D01*
X141678812Y-72481156D01*
X141808167Y-72686567D01*
X141811512Y-72690361D01*
X141965350Y-72864858D01*
X141965353Y-72864861D01*
X141968698Y-72868655D01*
X141972606Y-72871865D01*
X141972607Y-72871866D01*
X142079242Y-72959456D01*
X142156278Y-73022734D01*
X142366078Y-73144841D01*
X142370801Y-73146654D01*
X142413132Y-73162903D01*
X142469560Y-73205988D01*
X142493737Y-73272741D01*
X142477986Y-73341969D01*
X142421228Y-73394729D01*
X142371965Y-73417701D01*
X142272464Y-73464099D01*
X142268283Y-73466940D01*
X142268282Y-73466941D01*
X142228627Y-73493891D01*
X142071693Y-73600544D01*
X141895319Y-73767332D01*
X141892241Y-73771358D01*
X141892240Y-73771359D01*
X141750953Y-73956154D01*
X141750950Y-73956158D01*
X141747880Y-73960174D01*
X141633169Y-74174109D01*
X141554138Y-74403631D01*
X141512821Y-74642836D01*
X141511500Y-74671925D01*
X141511500Y-75841001D01*
X135630488Y-75841001D01*
X135658096Y-75813489D01*
X135717594Y-75730689D01*
X135785435Y-75636277D01*
X135788453Y-75632077D01*
X135887430Y-75431811D01*
X135952370Y-75218069D01*
X135981529Y-74996590D01*
X135983156Y-74930000D01*
X135964852Y-74707361D01*
X135910431Y-74490702D01*
X135821354Y-74285840D01*
X135781906Y-74224862D01*
X135702822Y-74102617D01*
X135702820Y-74102614D01*
X135700014Y-74098277D01*
X135686570Y-74083502D01*
X135552798Y-73936488D01*
X135521746Y-73872642D01*
X135530141Y-73802143D01*
X135575317Y-73747375D01*
X135601761Y-73733706D01*
X135708297Y-73693767D01*
X135716705Y-73690615D01*
X135833261Y-73603261D01*
X135920615Y-73486705D01*
X135971745Y-73350316D01*
X135978500Y-73288134D01*
X135978500Y-71491866D01*
X135971745Y-71429684D01*
X135920615Y-71293295D01*
X135833261Y-71176739D01*
X135716705Y-71089385D01*
X135580316Y-71038255D01*
X135518134Y-71031500D01*
X133721866Y-71031500D01*
X133659684Y-71038255D01*
X133523295Y-71089385D01*
X133406739Y-71176739D01*
X133319385Y-71293295D01*
X133268255Y-71429684D01*
X133261500Y-71491866D01*
X133261500Y-73288134D01*
X133268255Y-73350316D01*
X133319385Y-73486705D01*
X133406739Y-73603261D01*
X133523295Y-73690615D01*
X133531704Y-73693767D01*
X133531705Y-73693768D01*
X133640451Y-73734535D01*
X133697216Y-73777176D01*
X133721916Y-73843738D01*
X133706709Y-73913087D01*
X133687316Y-73939568D01*
X133560629Y-74072138D01*
X133434743Y-74256680D01*
X133340688Y-74459305D01*
X133280989Y-74674570D01*
X133257251Y-74896695D01*
X133257548Y-74901848D01*
X133257548Y-74901851D01*
X133263011Y-74996590D01*
X133270110Y-75119715D01*
X133271247Y-75124761D01*
X133271248Y-75124767D01*
X133291119Y-75212939D01*
X133319222Y-75337639D01*
X133403266Y-75544616D01*
X133519987Y-75735088D01*
X133666250Y-75903938D01*
X133838126Y-76046632D01*
X133908595Y-76087811D01*
X133911445Y-76089476D01*
X133960169Y-76141114D01*
X133973240Y-76210897D01*
X133946509Y-76276669D01*
X133906055Y-76310027D01*
X133893607Y-76316507D01*
X133889474Y-76319610D01*
X133889471Y-76319612D01*
X133719100Y-76447530D01*
X133714965Y-76450635D01*
X133711393Y-76454373D01*
X133572395Y-76599826D01*
X133560629Y-76612138D01*
X133434743Y-76796680D01*
X133399843Y-76871866D01*
X133360800Y-76955978D01*
X133340688Y-76999305D01*
X133280989Y-77214570D01*
X133257251Y-77436695D01*
X132715000Y-77436695D01*
X132715000Y-60061187D01*
X132715607Y-60048837D01*
X132732998Y-59872263D01*
X132737815Y-59848043D01*
X132787518Y-59684190D01*
X132796971Y-59661371D01*
X132877681Y-59510372D01*
X132891399Y-59489842D01*
X133000026Y-59357479D01*
X133017479Y-59340026D01*
X133149842Y-59231399D01*
X133170369Y-59217683D01*
X133321371Y-59136971D01*
X133344191Y-59127518D01*
X133508043Y-59077815D01*
X133532260Y-59072999D01*
X133708837Y-59055607D01*
X133721187Y-59055000D01*
X160918813Y-59055000D01*
X160931163Y-59055607D01*
G37*
%TD.AperFunction*%
%TD*%
M02*
