%TF.GenerationSoftware,KiCad,Pcbnew,(6.0.11)*%
%TF.CreationDate,2023-02-06T21:00:16+10:00*%
%TF.ProjectId,can_explorer,63616e5f-6578-4706-9c6f-7265722e6b69,rev?*%
%TF.SameCoordinates,Original*%
%TF.FileFunction,Drillmap*%
%TF.FilePolarity,Positive*%
%FSLAX45Y45*%
G04 Gerber Fmt 4.5, Leading zero omitted, Abs format (unit mm)*
G04 Created by KiCad (PCBNEW (6.0.11)) date 2023-02-06 21:00:16*
%MOMM*%
%LPD*%
G01*
G04 APERTURE LIST*
%ADD10C,0.100000*%
%ADD11C,0.200000*%
G04 APERTURE END LIST*
D10*
X16129000Y-5842000D02*
X13335000Y-5842000D01*
X13335000Y-10414000D02*
X16129000Y-10414000D01*
X13208000Y-5969000D02*
X13208000Y-10287000D01*
X13335000Y-5842000D02*
G75*
G03*
X13208000Y-5969000I0J-127000D01*
G01*
X13208000Y-10287000D02*
G75*
G03*
X13335000Y-10414000I127000J0D01*
G01*
X16129000Y-10414000D02*
G75*
G03*
X16256000Y-10287000I0J127000D01*
G01*
X16256000Y-10287000D02*
X16256000Y-5969000D01*
X16256000Y-5969000D02*
G75*
G03*
X16129000Y-5842000I-127000J0D01*
G01*
D11*
X13460619Y-10729476D02*
X13460619Y-10529476D01*
X13508238Y-10529476D01*
X13536809Y-10539000D01*
X13555857Y-10558048D01*
X13565381Y-10577095D01*
X13574905Y-10615190D01*
X13574905Y-10643762D01*
X13565381Y-10681857D01*
X13555857Y-10700905D01*
X13536809Y-10719952D01*
X13508238Y-10729476D01*
X13460619Y-10729476D01*
X13660619Y-10729476D02*
X13660619Y-10596143D01*
X13660619Y-10634238D02*
X13670143Y-10615190D01*
X13679667Y-10605667D01*
X13698714Y-10596143D01*
X13717762Y-10596143D01*
X13784428Y-10729476D02*
X13784428Y-10596143D01*
X13784428Y-10529476D02*
X13774905Y-10539000D01*
X13784428Y-10548524D01*
X13793952Y-10539000D01*
X13784428Y-10529476D01*
X13784428Y-10548524D01*
X13908238Y-10729476D02*
X13889190Y-10719952D01*
X13879667Y-10700905D01*
X13879667Y-10529476D01*
X14013000Y-10729476D02*
X13993952Y-10719952D01*
X13984428Y-10700905D01*
X13984428Y-10529476D01*
X14241571Y-10729476D02*
X14241571Y-10529476D01*
X14308238Y-10672333D01*
X14374905Y-10529476D01*
X14374905Y-10729476D01*
X14555857Y-10729476D02*
X14555857Y-10624714D01*
X14546333Y-10605667D01*
X14527286Y-10596143D01*
X14489190Y-10596143D01*
X14470143Y-10605667D01*
X14555857Y-10719952D02*
X14536809Y-10729476D01*
X14489190Y-10729476D01*
X14470143Y-10719952D01*
X14460619Y-10700905D01*
X14460619Y-10681857D01*
X14470143Y-10662810D01*
X14489190Y-10653286D01*
X14536809Y-10653286D01*
X14555857Y-10643762D01*
X14651095Y-10596143D02*
X14651095Y-10796143D01*
X14651095Y-10605667D02*
X14670143Y-10596143D01*
X14708238Y-10596143D01*
X14727286Y-10605667D01*
X14736809Y-10615190D01*
X14746333Y-10634238D01*
X14746333Y-10691381D01*
X14736809Y-10710429D01*
X14727286Y-10719952D01*
X14708238Y-10729476D01*
X14670143Y-10729476D01*
X14651095Y-10719952D01*
X14832048Y-10710429D02*
X14841571Y-10719952D01*
X14832048Y-10729476D01*
X14822524Y-10719952D01*
X14832048Y-10710429D01*
X14832048Y-10729476D01*
X14832048Y-10605667D02*
X14841571Y-10615190D01*
X14832048Y-10624714D01*
X14822524Y-10615190D01*
X14832048Y-10605667D01*
X14832048Y-10624714D01*
M02*
