%TF.GenerationSoftware,KiCad,Pcbnew,(6.0.11)*%
%TF.CreationDate,2023-02-06T20:57:08+10:00*%
%TF.ProjectId,can_explorer,63616e5f-6578-4706-9c6f-7265722e6b69,rev?*%
%TF.SameCoordinates,Original*%
%TF.FileFunction,Legend,Bot*%
%TF.FilePolarity,Positive*%
%FSLAX46Y46*%
G04 Gerber Fmt 4.6, Leading zero omitted, Abs format (unit mm)*
G04 Created by KiCad (PCBNEW (6.0.11)) date 2023-02-06 20:57:08*
%MOMM*%
%LPD*%
G01*
G04 APERTURE LIST*
%ADD10C,0.150000*%
%ADD11C,0.120000*%
%ADD12R,2.000000X3.000000*%
%ADD13O,2.000000X3.000000*%
%ADD14R,1.700000X1.700000*%
%ADD15O,1.700000X1.700000*%
G04 APERTURE END LIST*
D10*
X157035476Y-83002380D02*
X157606904Y-83002380D01*
X157321190Y-83002380D02*
X157321190Y-82002380D01*
X157416428Y-82145238D01*
X157511666Y-82240476D01*
X157606904Y-82288095D01*
X156702142Y-82002380D02*
X156083095Y-82002380D01*
X156416428Y-82383333D01*
X156273571Y-82383333D01*
X156178333Y-82430952D01*
X156130714Y-82478571D01*
X156083095Y-82573809D01*
X156083095Y-82811904D01*
X156130714Y-82907142D01*
X156178333Y-82954761D01*
X156273571Y-83002380D01*
X156559285Y-83002380D01*
X156654523Y-82954761D01*
X156702142Y-82907142D01*
X157035476Y-72842380D02*
X156845000Y-72842380D01*
X156749761Y-72794761D01*
X156702142Y-72747142D01*
X156606904Y-72604285D01*
X156559285Y-72413809D01*
X156559285Y-72032857D01*
X156606904Y-71937619D01*
X156654523Y-71890000D01*
X156749761Y-71842380D01*
X156940238Y-71842380D01*
X157035476Y-71890000D01*
X157083095Y-71937619D01*
X157130714Y-72032857D01*
X157130714Y-72270952D01*
X157083095Y-72366190D01*
X157035476Y-72413809D01*
X156940238Y-72461428D01*
X156749761Y-72461428D01*
X156654523Y-72413809D01*
X156606904Y-72366190D01*
X156559285Y-72270952D01*
X137890238Y-90050952D02*
X137985476Y-90003333D01*
X138033095Y-89955714D01*
X138080714Y-89860476D01*
X138080714Y-89812857D01*
X138033095Y-89717619D01*
X137985476Y-89670000D01*
X137890238Y-89622380D01*
X137699761Y-89622380D01*
X137604523Y-89670000D01*
X137556904Y-89717619D01*
X137509285Y-89812857D01*
X137509285Y-89860476D01*
X137556904Y-89955714D01*
X137604523Y-90003333D01*
X137699761Y-90050952D01*
X137890238Y-90050952D01*
X137985476Y-90098571D01*
X138033095Y-90146190D01*
X138080714Y-90241428D01*
X138080714Y-90431904D01*
X138033095Y-90527142D01*
X137985476Y-90574761D01*
X137890238Y-90622380D01*
X137699761Y-90622380D01*
X137604523Y-90574761D01*
X137556904Y-90527142D01*
X137509285Y-90431904D01*
X137509285Y-90241428D01*
X137556904Y-90146190D01*
X137604523Y-90098571D01*
X137699761Y-90050952D01*
X138128333Y-76922380D02*
X137509285Y-76922380D01*
X137842619Y-77303333D01*
X137699761Y-77303333D01*
X137604523Y-77350952D01*
X137556904Y-77398571D01*
X137509285Y-77493809D01*
X137509285Y-77731904D01*
X137556904Y-77827142D01*
X137604523Y-77874761D01*
X137699761Y-77922380D01*
X137985476Y-77922380D01*
X138080714Y-77874761D01*
X138128333Y-77827142D01*
X138128333Y-87082380D02*
X137461666Y-87082380D01*
X137890238Y-88082380D01*
X137509285Y-72842380D02*
X138080714Y-72842380D01*
X137795000Y-72842380D02*
X137795000Y-71842380D01*
X137890238Y-71985238D01*
X137985476Y-72080476D01*
X138080714Y-72128095D01*
X157035476Y-85542380D02*
X157606904Y-85542380D01*
X157321190Y-85542380D02*
X157321190Y-84542380D01*
X157416428Y-84685238D01*
X157511666Y-84780476D01*
X157606904Y-84828095D01*
X156178333Y-84875714D02*
X156178333Y-85542380D01*
X156416428Y-84494761D02*
X156654523Y-85209047D01*
X156035476Y-85209047D01*
X157035476Y-75382380D02*
X157606904Y-75382380D01*
X157321190Y-75382380D02*
X157321190Y-74382380D01*
X157416428Y-74525238D01*
X157511666Y-74620476D01*
X157606904Y-74668095D01*
X156416428Y-74382380D02*
X156321190Y-74382380D01*
X156225952Y-74430000D01*
X156178333Y-74477619D01*
X156130714Y-74572857D01*
X156083095Y-74763333D01*
X156083095Y-75001428D01*
X156130714Y-75191904D01*
X156178333Y-75287142D01*
X156225952Y-75334761D01*
X156321190Y-75382380D01*
X156416428Y-75382380D01*
X156511666Y-75334761D01*
X156559285Y-75287142D01*
X156606904Y-75191904D01*
X156654523Y-75001428D01*
X156654523Y-74763333D01*
X156606904Y-74572857D01*
X156559285Y-74477619D01*
X156511666Y-74430000D01*
X156416428Y-74382380D01*
X138080714Y-74477619D02*
X138033095Y-74430000D01*
X137937857Y-74382380D01*
X137699761Y-74382380D01*
X137604523Y-74430000D01*
X137556904Y-74477619D01*
X137509285Y-74572857D01*
X137509285Y-74668095D01*
X137556904Y-74810952D01*
X138128333Y-75382380D01*
X137509285Y-75382380D01*
X157035476Y-80462380D02*
X157606904Y-80462380D01*
X157321190Y-80462380D02*
X157321190Y-79462380D01*
X157416428Y-79605238D01*
X157511666Y-79700476D01*
X157606904Y-79748095D01*
X156654523Y-79557619D02*
X156606904Y-79510000D01*
X156511666Y-79462380D01*
X156273571Y-79462380D01*
X156178333Y-79510000D01*
X156130714Y-79557619D01*
X156083095Y-79652857D01*
X156083095Y-79748095D01*
X156130714Y-79890952D01*
X156702142Y-80462380D01*
X156083095Y-80462380D01*
X137604523Y-84542380D02*
X137795000Y-84542380D01*
X137890238Y-84590000D01*
X137937857Y-84637619D01*
X138033095Y-84780476D01*
X138080714Y-84970952D01*
X138080714Y-85351904D01*
X138033095Y-85447142D01*
X137985476Y-85494761D01*
X137890238Y-85542380D01*
X137699761Y-85542380D01*
X137604523Y-85494761D01*
X137556904Y-85447142D01*
X137509285Y-85351904D01*
X137509285Y-85113809D01*
X137556904Y-85018571D01*
X137604523Y-84970952D01*
X137699761Y-84923333D01*
X137890238Y-84923333D01*
X137985476Y-84970952D01*
X138033095Y-85018571D01*
X138080714Y-85113809D01*
X157035476Y-90622380D02*
X157606904Y-90622380D01*
X157321190Y-90622380D02*
X157321190Y-89622380D01*
X157416428Y-89765238D01*
X157511666Y-89860476D01*
X157606904Y-89908095D01*
X156178333Y-89622380D02*
X156368809Y-89622380D01*
X156464047Y-89670000D01*
X156511666Y-89717619D01*
X156606904Y-89860476D01*
X156654523Y-90050952D01*
X156654523Y-90431904D01*
X156606904Y-90527142D01*
X156559285Y-90574761D01*
X156464047Y-90622380D01*
X156273571Y-90622380D01*
X156178333Y-90574761D01*
X156130714Y-90527142D01*
X156083095Y-90431904D01*
X156083095Y-90193809D01*
X156130714Y-90098571D01*
X156178333Y-90050952D01*
X156273571Y-90003333D01*
X156464047Y-90003333D01*
X156559285Y-90050952D01*
X156606904Y-90098571D01*
X156654523Y-90193809D01*
X141939500Y-101406142D02*
X141987119Y-101453761D01*
X142129976Y-101501380D01*
X142225214Y-101501380D01*
X142368071Y-101453761D01*
X142463309Y-101358523D01*
X142510928Y-101263285D01*
X142558547Y-101072809D01*
X142558547Y-100929952D01*
X142510928Y-100739476D01*
X142463309Y-100644238D01*
X142368071Y-100549000D01*
X142225214Y-100501380D01*
X142129976Y-100501380D01*
X141987119Y-100549000D01*
X141939500Y-100596619D01*
X141558547Y-101215666D02*
X141082357Y-101215666D01*
X141653785Y-101501380D02*
X141320452Y-100501380D01*
X140987119Y-101501380D01*
X140653785Y-101501380D02*
X140653785Y-100501380D01*
X140082357Y-101501380D01*
X140082357Y-100501380D01*
X138844261Y-100977571D02*
X138510928Y-100977571D01*
X138368071Y-101501380D02*
X138844261Y-101501380D01*
X138844261Y-100501380D01*
X138368071Y-100501380D01*
X138034738Y-101501380D02*
X137510928Y-100834714D01*
X138034738Y-100834714D02*
X137510928Y-101501380D01*
X137129976Y-100834714D02*
X137129976Y-101834714D01*
X137129976Y-100882333D02*
X137034738Y-100834714D01*
X136844261Y-100834714D01*
X136749023Y-100882333D01*
X136701404Y-100929952D01*
X136653785Y-101025190D01*
X136653785Y-101310904D01*
X136701404Y-101406142D01*
X136749023Y-101453761D01*
X136844261Y-101501380D01*
X137034738Y-101501380D01*
X137129976Y-101453761D01*
X136082357Y-101501380D02*
X136177595Y-101453761D01*
X136225214Y-101358523D01*
X136225214Y-100501380D01*
X135558547Y-101501380D02*
X135653785Y-101453761D01*
X135701404Y-101406142D01*
X135749023Y-101310904D01*
X135749023Y-101025190D01*
X135701404Y-100929952D01*
X135653785Y-100882333D01*
X135558547Y-100834714D01*
X135415690Y-100834714D01*
X135320452Y-100882333D01*
X135272833Y-100929952D01*
X135225214Y-101025190D01*
X135225214Y-101310904D01*
X135272833Y-101406142D01*
X135320452Y-101453761D01*
X135415690Y-101501380D01*
X135558547Y-101501380D01*
X134796642Y-101501380D02*
X134796642Y-100834714D01*
X134796642Y-101025190D02*
X134749023Y-100929952D01*
X134701404Y-100882333D01*
X134606166Y-100834714D01*
X134510928Y-100834714D01*
X133796642Y-101453761D02*
X133891880Y-101501380D01*
X134082357Y-101501380D01*
X134177595Y-101453761D01*
X134225214Y-101358523D01*
X134225214Y-100977571D01*
X134177595Y-100882333D01*
X134082357Y-100834714D01*
X133891880Y-100834714D01*
X133796642Y-100882333D01*
X133749023Y-100977571D01*
X133749023Y-101072809D01*
X134225214Y-101168047D01*
X133320452Y-101501380D02*
X133320452Y-100834714D01*
X133320452Y-101025190D02*
X133272833Y-100929952D01*
X133225214Y-100882333D01*
X133129976Y-100834714D01*
X133034738Y-100834714D01*
X147082357Y-102111380D02*
X147082357Y-102825666D01*
X147129976Y-102968523D01*
X147225214Y-103063761D01*
X147368071Y-103111380D01*
X147463309Y-103111380D01*
X146177595Y-103111380D02*
X146177595Y-102587571D01*
X146225214Y-102492333D01*
X146320452Y-102444714D01*
X146510928Y-102444714D01*
X146606166Y-102492333D01*
X146177595Y-103063761D02*
X146272833Y-103111380D01*
X146510928Y-103111380D01*
X146606166Y-103063761D01*
X146653785Y-102968523D01*
X146653785Y-102873285D01*
X146606166Y-102778047D01*
X146510928Y-102730428D01*
X146272833Y-102730428D01*
X146177595Y-102682809D01*
X145796642Y-102444714D02*
X145558547Y-103111380D01*
X145320452Y-102444714D02*
X145558547Y-103111380D01*
X145653785Y-103349476D01*
X145701404Y-103397095D01*
X145796642Y-103444714D01*
X144510928Y-103111380D02*
X144510928Y-102111380D01*
X144510928Y-103063761D02*
X144606166Y-103111380D01*
X144796642Y-103111380D01*
X144891880Y-103063761D01*
X144939500Y-103016142D01*
X144987119Y-102920904D01*
X144987119Y-102635190D01*
X144939500Y-102539952D01*
X144891880Y-102492333D01*
X144796642Y-102444714D01*
X144606166Y-102444714D01*
X144510928Y-102492333D01*
X143653785Y-103063761D02*
X143749023Y-103111380D01*
X143939500Y-103111380D01*
X144034738Y-103063761D01*
X144082357Y-102968523D01*
X144082357Y-102587571D01*
X144034738Y-102492333D01*
X143939500Y-102444714D01*
X143749023Y-102444714D01*
X143653785Y-102492333D01*
X143606166Y-102587571D01*
X143606166Y-102682809D01*
X144082357Y-102778047D01*
X143177595Y-102444714D02*
X143177595Y-103111380D01*
X143177595Y-102539952D02*
X143129976Y-102492333D01*
X143034738Y-102444714D01*
X142891880Y-102444714D01*
X142796642Y-102492333D01*
X142749023Y-102587571D01*
X142749023Y-103111380D01*
X141510928Y-103111380D02*
X141510928Y-102111380D01*
X141177595Y-102825666D01*
X140844261Y-102111380D01*
X140844261Y-103111380D01*
X139987119Y-103063761D02*
X140082357Y-103111380D01*
X140272833Y-103111380D01*
X140368071Y-103063761D01*
X140415690Y-102968523D01*
X140415690Y-102587571D01*
X140368071Y-102492333D01*
X140272833Y-102444714D01*
X140082357Y-102444714D01*
X139987119Y-102492333D01*
X139939500Y-102587571D01*
X139939500Y-102682809D01*
X140415690Y-102778047D01*
X139606166Y-102444714D02*
X139368071Y-103111380D01*
X139129976Y-102444714D02*
X139368071Y-103111380D01*
X139463309Y-103349476D01*
X139510928Y-103397095D01*
X139606166Y-103444714D01*
X138368071Y-103063761D02*
X138463309Y-103111380D01*
X138653785Y-103111380D01*
X138749023Y-103063761D01*
X138796642Y-102968523D01*
X138796642Y-102587571D01*
X138749023Y-102492333D01*
X138653785Y-102444714D01*
X138463309Y-102444714D01*
X138368071Y-102492333D01*
X138320452Y-102587571D01*
X138320452Y-102682809D01*
X138796642Y-102778047D01*
X137891880Y-103111380D02*
X137891880Y-102444714D01*
X137891880Y-102635190D02*
X137844261Y-102539952D01*
X137796642Y-102492333D01*
X137701404Y-102444714D01*
X137606166Y-102444714D01*
X136558547Y-102206619D02*
X136510928Y-102159000D01*
X136415690Y-102111380D01*
X136177595Y-102111380D01*
X136082357Y-102159000D01*
X136034738Y-102206619D01*
X135987119Y-102301857D01*
X135987119Y-102397095D01*
X136034738Y-102539952D01*
X136606166Y-103111380D01*
X135987119Y-103111380D01*
X135368071Y-102111380D02*
X135272833Y-102111380D01*
X135177595Y-102159000D01*
X135129976Y-102206619D01*
X135082357Y-102301857D01*
X135034738Y-102492333D01*
X135034738Y-102730428D01*
X135082357Y-102920904D01*
X135129976Y-103016142D01*
X135177595Y-103063761D01*
X135272833Y-103111380D01*
X135368071Y-103111380D01*
X135463309Y-103063761D01*
X135510928Y-103016142D01*
X135558547Y-102920904D01*
X135606166Y-102730428D01*
X135606166Y-102492333D01*
X135558547Y-102301857D01*
X135510928Y-102206619D01*
X135463309Y-102159000D01*
X135368071Y-102111380D01*
X134653785Y-102206619D02*
X134606166Y-102159000D01*
X134510928Y-102111380D01*
X134272833Y-102111380D01*
X134177595Y-102159000D01*
X134129976Y-102206619D01*
X134082357Y-102301857D01*
X134082357Y-102397095D01*
X134129976Y-102539952D01*
X134701404Y-103111380D01*
X134082357Y-103111380D01*
X133749023Y-102111380D02*
X133129976Y-102111380D01*
X133463309Y-102492333D01*
X133320452Y-102492333D01*
X133225214Y-102539952D01*
X133177595Y-102587571D01*
X133129976Y-102682809D01*
X133129976Y-102920904D01*
X133177595Y-103016142D01*
X133225214Y-103063761D01*
X133320452Y-103111380D01*
X133606166Y-103111380D01*
X133701404Y-103063761D01*
X133749023Y-103016142D01*
X137604523Y-79795714D02*
X137604523Y-80462380D01*
X137842619Y-79414761D02*
X138080714Y-80129047D01*
X137461666Y-80129047D01*
X157035476Y-77922380D02*
X157606904Y-77922380D01*
X157321190Y-77922380D02*
X157321190Y-76922380D01*
X157416428Y-77065238D01*
X157511666Y-77160476D01*
X157606904Y-77208095D01*
X156083095Y-77922380D02*
X156654523Y-77922380D01*
X156368809Y-77922380D02*
X156368809Y-76922380D01*
X156464047Y-77065238D01*
X156559285Y-77160476D01*
X156654523Y-77208095D01*
X157035476Y-88082380D02*
X157606904Y-88082380D01*
X157321190Y-88082380D02*
X157321190Y-87082380D01*
X157416428Y-87225238D01*
X157511666Y-87320476D01*
X157606904Y-87368095D01*
X156130714Y-87082380D02*
X156606904Y-87082380D01*
X156654523Y-87558571D01*
X156606904Y-87510952D01*
X156511666Y-87463333D01*
X156273571Y-87463333D01*
X156178333Y-87510952D01*
X156130714Y-87558571D01*
X156083095Y-87653809D01*
X156083095Y-87891904D01*
X156130714Y-87987142D01*
X156178333Y-88034761D01*
X156273571Y-88082380D01*
X156511666Y-88082380D01*
X156606904Y-88034761D01*
X156654523Y-87987142D01*
X137556904Y-82002380D02*
X138033095Y-82002380D01*
X138080714Y-82478571D01*
X138033095Y-82430952D01*
X137937857Y-82383333D01*
X137699761Y-82383333D01*
X137604523Y-82430952D01*
X137556904Y-82478571D01*
X137509285Y-82573809D01*
X137509285Y-82811904D01*
X137556904Y-82907142D01*
X137604523Y-82954761D01*
X137699761Y-83002380D01*
X137937857Y-83002380D01*
X138033095Y-82954761D01*
X138080714Y-82907142D01*
%TO.C,J2*%
X134953333Y-69512380D02*
X134953333Y-70226666D01*
X135000952Y-70369523D01*
X135096190Y-70464761D01*
X135239047Y-70512380D01*
X135334285Y-70512380D01*
X134524761Y-69607619D02*
X134477142Y-69560000D01*
X134381904Y-69512380D01*
X134143809Y-69512380D01*
X134048571Y-69560000D01*
X134000952Y-69607619D01*
X133953333Y-69702857D01*
X133953333Y-69798095D01*
X134000952Y-69940952D01*
X134572380Y-70512380D01*
X133953333Y-70512380D01*
%TO.C,J3*%
X160353333Y-69512380D02*
X160353333Y-70226666D01*
X160400952Y-70369523D01*
X160496190Y-70464761D01*
X160639047Y-70512380D01*
X160734285Y-70512380D01*
X159972380Y-69512380D02*
X159353333Y-69512380D01*
X159686666Y-69893333D01*
X159543809Y-69893333D01*
X159448571Y-69940952D01*
X159400952Y-69988571D01*
X159353333Y-70083809D01*
X159353333Y-70321904D01*
X159400952Y-70417142D01*
X159448571Y-70464761D01*
X159543809Y-70512380D01*
X159829523Y-70512380D01*
X159924761Y-70464761D01*
X159972380Y-70417142D01*
D11*
%TO.C,J2*%
X135950000Y-71060000D02*
X134620000Y-71060000D01*
X133290000Y-73660000D02*
X133290000Y-91500000D01*
X135950000Y-72390000D02*
X135950000Y-71060000D01*
X135950000Y-73660000D02*
X135950000Y-91500000D01*
X135950000Y-91500000D02*
X133290000Y-91500000D01*
X135950000Y-73660000D02*
X133290000Y-73660000D01*
%TO.C,J3*%
X158690000Y-73660000D02*
X158690000Y-91500000D01*
X161350000Y-73660000D02*
X158690000Y-73660000D01*
X161350000Y-73660000D02*
X161350000Y-91500000D01*
X161350000Y-91500000D02*
X158690000Y-91500000D01*
X161350000Y-72390000D02*
X161350000Y-71060000D01*
X161350000Y-71060000D02*
X160020000Y-71060000D01*
%TD*%
%LPC*%
D12*
%TO.C,J1*%
X143020000Y-67280000D03*
D13*
X143020000Y-71280000D03*
X143020000Y-75280000D03*
X143020000Y-79280000D03*
X143020000Y-83280000D03*
X143020000Y-87280000D03*
X143020000Y-91280000D03*
X143020000Y-95280000D03*
X151620000Y-67280000D03*
X151620000Y-71280000D03*
X151620000Y-75280000D03*
X151620000Y-79280000D03*
X151620000Y-83280000D03*
X151620000Y-87280000D03*
X151620000Y-91280000D03*
X151620000Y-95280000D03*
%TD*%
D14*
%TO.C,J2*%
X134620000Y-72390000D03*
D15*
X134620000Y-74930000D03*
X134620000Y-77470000D03*
X134620000Y-80010000D03*
X134620000Y-82550000D03*
X134620000Y-85090000D03*
X134620000Y-87630000D03*
X134620000Y-90170000D03*
%TD*%
D14*
%TO.C,J3*%
X160020000Y-72390000D03*
D15*
X160020000Y-74930000D03*
X160020000Y-77470000D03*
X160020000Y-80010000D03*
X160020000Y-82550000D03*
X160020000Y-85090000D03*
X160020000Y-87630000D03*
X160020000Y-90170000D03*
%TD*%
M02*
